<svg width="719" height="728" viewBox="0 0 719 728" fill="none" xmlns="http://www.w3.org/2000/svg">
<path fill-rule="evenodd" clip-rule="evenodd" d="M214.586 60.7407C202.713 57.2381 190.006 57.1124 179.024 60.471C167.162 64.0617 155.418 72.5931 146.971 83.7747C142.123 90.1842 137.476 99.5145 137.92 101.932C138.216 103.476 139.72 104.696 141.923 105.231C142.964 105.502 147.047 105.97 150.975 106.257C157.385 106.764 164.383 107.926 165.356 108.631C166.279 109.314 161.898 109.615 155.824 109.338C145.898 108.865 141.558 109.271 133.573 111.506C125.602 113.777 122.593 116.081 121.244 121.003C119.666 126.869 123.561 137.066 130.591 145.475C138.825 155.267 149.437 161.183 158.467 161.042C163.828 160.956 171.531 157.414 175.209 153.341C179.388 148.701 180.254 143.283 178.366 133.74C177.429 128.884 177.574 127.528 179.29 125.541C180.727 123.868 185.686 121.47 188.363 121.165L190.103 120.952L188.707 122.527C185.316 126.404 183.825 133.696 185.106 139.913C186.528 146.683 190.919 152.26 195.939 153.649C197.89 154.163 202.377 154.225 206.472 153.716C211.077 153.163 218.097 150.342 221.49 147.681C229.609 141.336 235.037 130.515 236.723 117.346C236.888 115.941 237.054 114.739 237.096 114.641C237.103 114.557 238.214 114.395 239.542 114.267L241.96 114.025L243.633 115.867C250.193 123.006 259.058 124.473 268.612 119.984C276.407 116.365 282.36 110.485 287.232 101.713C287.65 100.937 288.977 99.9984 292.098 98.1762C316.553 83.9282 329.665 70.0203 330.282 57.7264C330.554 52.7502 328.351 47.2678 325.448 45.5954C324.014 44.7522 323.197 45.2426 322.076 47.5996L321.114 49.6489L320.999 47.3429C320.934 46.071 320.673 44.7157 320.351 44.3179C318.985 42.4332 304.306 41.4371 290.741 42.3051C277.191 43.208 259.82 46.6191 246.023 51.1495C245.854 51.2022 245.684 51.2555 245.514 51.3087L245.416 51.3393L245.283 51.3809C243.717 51.8707 242.197 52.3461 241.678 52.4496C241.056 52.6183 235.363 54.7033 228.965 57.1529L217.355 61.5748L214.586 60.7407ZM287.53 57.6718C285.182 58.6153 282.514 57.4771 281.571 55.1296C280.628 52.7821 281.766 50.1143 284.114 49.1708C286.462 48.2273 289.13 49.3655 290.074 51.713C291.017 54.0604 289.878 56.7283 287.53 57.6718Z" fill="#58A4FB"/>
<path fill-rule="evenodd" clip-rule="evenodd" d="M129.178 271.148C131.637 285.216 132.35 296.663 131.236 303.966C131.076 305.13 130.449 307.277 129.875 308.73C128.51 312.132 127.413 313.255 125.135 313.531C123.454 313.757 122.259 313.313 115.392 310.017C111.174 308.01 109.13 307.931 103.626 309.662C93.5467 312.822 89.7756 312.816 85.9605 309.633L84.6663 308.541L82.0425 309.199C75.617 310.757 72.6128 313.721 69.7766 321.269C68.4711 324.693 68.361 325.264 68.1814 328.495C67.9695 333.277 68.1792 342.6 68.7956 355.406C69.5472 370.777 69.5965 375.588 69.0639 375.832C68.1626 376.246 64.5996 374.855 62.1769 373.141C56.8492 369.362 48.1478 358.281 42.5495 348.182C41.8101 346.786 41.1126 345.643 41.023 345.61C40.9632 345.587 39.2595 345.873 37.2203 346.238C23.4012 348.758 8.33807 348.403 2.47953 345.413C0.248948 344.279 0.12514 344.064 0.861553 342.263C2.71484 337.546 9.20465 331.695 28.5054 317.341C41.0526 307.992 45.7587 304.198 47.1293 302.429C47.5824 301.85 47.5824 301.85 46.3814 301.88C40.0599 302.151 26.2277 284.748 25.2644 275.348C24.6395 269.066 29.4984 265.227 39.2086 264.343C41.1403 264.176 43.7846 264.104 45.0309 264.226C45.1526 264.236 45.2683 264.246 45.3783 264.255C46.3398 264.336 46.8621 264.379 47.1424 264.14C47.4756 263.855 47.4667 263.17 47.4475 261.67C47.4456 261.526 47.4436 261.372 47.4418 261.212C47.4288 259.508 47.2776 258.908 46.9046 258.905C45.6737 258.924 42.3881 257.977 41.2707 257.324C39.7196 256.375 39.1511 255.892 38.469 254.891C37.7757 253.92 36.5576 253.264 30.9288 250.937C20.0407 246.387 15.2849 242.991 15.2477 239.612C15.1678 235.707 24.9306 232.668 43.5076 230.791L50.9542 230.054L53.3751 225.547C63.6409 206.413 81.6986 189.456 103.268 178.697C112.325 174.172 122.05 171.05 124.38 171.915C127.368 173.024 129.37 183.013 129.95 199.578C130.013 201.606 130.346 204.279 130.719 205.471C134.882 219.253 134.492 240.081 129.642 260.376L128.303 265.997L129.178 271.148ZM113.857 211.295C112.824 214.076 114.242 217.167 117.023 218.199C119.804 219.231 122.895 217.813 123.928 215.032C124.96 212.251 123.543 209.161 120.762 208.129C117.981 207.097 114.889 208.514 113.857 211.295Z" fill="#58A4FB"/>
<path fill-rule="evenodd" clip-rule="evenodd" d="M130.802 436.054C148.976 440.898 162.717 449.123 169.985 459.425C172.882 463.551 175.126 469.903 175.649 475.572C176.342 482.719 175.647 497.982 173.821 517.085C172.676 528.795 172.399 533.601 172.678 536.948C172.754 538.051 172.803 539.037 172.777 539.116C172.752 539.194 170.825 538.616 168.519 537.872C166.2 537.103 160.352 535.305 155.534 533.859C143.371 530.241 139.416 528.19 137.133 524.434C136.578 523.479 136.013 522.757 135.91 522.81C135.574 522.983 132.798 525.97 131.669 527.332C128.449 531.363 129.113 534.251 134.218 538.42C135.606 539.536 138.184 541.64 139.938 543.09C148.525 550.106 153.207 556.188 154.116 561.463C154.432 563.291 154.228 566.266 153.788 566.491C153.708 566.532 152.958 566.76 151.966 567.06L151.9 567.08C151.633 567.161 151.349 567.247 151.057 567.336C149.258 567.899 146.491 569.121 141.374 571.678C133.129 575.771 132.676 575.906 128.192 575.431C124.708 575.063 122.908 575.496 121.092 577.111C120.385 577.767 119.214 578.922 118.469 579.695C116.876 581.425 115.826 581.669 115.204 580.454C113.973 578.052 113.185 570.464 113.227 561.505C113.3 549.105 113.218 544.679 112.845 542.423C112.625 541.101 112.379 539.922 112.3 539.767C112.141 539.457 110.719 541.393 109.917 543.076C109.574 543.806 107.856 548.731 106.09 554.072C102.495 564.883 101.544 567.23 99.8976 568.791C99.4602 569.211 99.3814 569.121 98.26 567.314C95.8975 563.404 92.8348 560.928 77.2411 550.424C58.5362 537.794 55.8926 535.691 52.6792 531.075C48.7143 525.311 47.1615 517.887 48.0482 508.984C48.5458 504.098 49.8186 498.814 53.0796 488.369C54.8427 482.768 56.411 477.17 56.6328 475.947C57.0127 473.632 57.0957 471.502 56.8442 471.011C56.7516 470.831 56.1541 472.148 55.483 473.894C54.7993 475.68 52.7582 480.737 50.9062 485.209C46.1862 496.5 43.6057 503.497 41.0247 511.767C37.2477 523.879 35.9896 531.994 36.7483 539.205C36.9331 540.839 36.9078 540.917 36.5737 539.947C34.6466 534.084 34.9117 522.695 37.1799 511.65C39.3007 501.463 43.3608 489.075 47.2301 481.091C47.675 480.113 47.9787 479.305 47.8615 479.267C47.7443 479.229 46.9483 480.159 46.0774 481.388C44.5012 483.533 43.5704 485.282 37.9125 496.27C34.4975 502.913 31.3667 508.072 28.8648 511.148C27.0169 513.399 23.6086 516.744 22.6525 517.234C22.3683 517.38 23.6735 515.406 25.583 512.829C29.6977 507.362 32.2172 503.428 34.5483 498.809C36.4338 495.103 38.6683 488.576 39.0053 485.86C40.0131 477.384 43.4298 466.925 46.6332 462.543C48.9266 459.379 51.0158 457.917 53.7651 457.552L55.347 457.329L55.5541 453.276C56.4535 435.038 59.3734 424.246 63.8747 422.461C66.3453 421.489 82.9405 421.532 91.4946 422.564C103.714 424.001 114.645 427.697 123.673 433.411C125.307 434.433 126.805 435.003 130.802 436.054ZM95.7067 440.337C97.0758 443.009 100.352 444.065 103.025 442.696C105.697 441.327 106.754 438.051 105.385 435.379C104.016 432.707 100.739 431.65 98.0668 433.02C95.3943 434.389 94.3376 437.665 95.7067 440.337Z" fill="#58A4FB"/>
<path fill-rule="evenodd" clip-rule="evenodd" d="M320.842 608.371C321.259 608.4 321.574 608.423 321.693 608.425C321.931 608.458 322.799 608.711 323.608 609.034L325.047 609.578L322.514 610.754C315.187 614.142 306.541 620.286 303.334 624.319C302.014 625.98 301.259 627.867 301.502 628.902C301.751 629.846 303.843 632.12 305.698 633.424C306.917 634.286 308.556 634.878 310.481 635.147C311.311 635.26 311.3 635.287 310.75 636.192C310.082 637.239 310.249 637.368 312.212 637.464C312.891 637.485 313.932 637.62 314.503 637.754C315.485 637.959 315.528 638.007 315.113 638.498C314.865 638.805 314.531 639.328 314.38 639.706L314.083 640.369L320.289 642.598L319.524 643.262C318.053 644.518 318.15 644.745 320.436 645.439C320.603 645.487 320.779 645.538 320.959 645.589L321.392 645.714C322.269 645.966 323.172 646.226 323.665 646.355C324.997 646.699 325.019 646.801 323.865 647.966C323.434 648.419 323.019 648.91 322.955 649.072C322.879 649.261 323.736 649.697 325.51 650.343C328.481 651.436 328.929 651.803 328.147 652.428C327.894 652.671 327.603 653.086 327.549 653.377C327.436 653.895 327.49 653.916 329.248 654.056C331.949 654.26 332.466 654.529 332.413 655.758C332.348 657.327 332.969 658.356 334.646 659.402C337.784 661.406 341.504 661.798 345.849 660.626C346.895 660.356 352.092 658.306 357.354 656.093C367.677 651.777 372.125 650.271 378.481 648.996C382.427 648.197 390.169 647.288 390.315 647.628C390.347 647.703 387.28 650.448 383.512 653.695C372.807 662.955 367.536 668.321 364.216 673.341C357.996 682.799 356.759 691.371 357.268 721.463C357.274 721.947 357.281 722.398 357.288 722.816C357.337 725.92 357.358 727.255 356.943 727.408C356.63 727.523 356.068 726.965 355.082 725.984C354.909 725.812 354.724 725.627 354.524 725.431C349.013 719.978 346.251 712.184 344.559 697.096C343.387 686.498 342.081 681.005 339.972 677.599C337.652 673.859 334.164 671.714 330.713 671.899C329.144 671.991 328.767 672.153 327.716 673.14L326.471 674.3L325.23 673.648L323.953 673.012L323.813 673.832L323.662 674.678L321.775 673.924C319.591 673.052 318.448 673.251 318.281 674.529C318.184 675.241 318.147 675.257 316.917 674.578C315.472 673.813 313.439 673.501 312.717 673.901C312.431 674.068 312.054 674.542 311.909 674.984C311.894 675.023 311.881 675.06 311.868 675.096C311.767 675.374 311.702 675.556 311.577 675.619C311.344 675.736 310.904 675.444 309.643 674.607C309.536 674.536 309.423 674.461 309.304 674.382C307.126 672.949 306.339 672.884 305.563 674.044C305.54 674.078 305.518 674.111 305.497 674.143L305.474 674.18C305.329 674.405 305.233 674.553 305.1 674.603C304.845 674.7 304.452 674.434 303.304 673.656L303.297 673.651C303.178 673.57 303.051 673.484 302.915 673.392C301.6 672.46 301.071 672.218 300.731 672.363C300.316 672.541 299.573 674.089 299.481 675.022C299.39 675.798 297.195 674.64 295.281 672.781L293.566 671.126L290.132 671.192C288.272 671.231 286.622 671.291 286.444 671.345C286.293 671.409 287.81 678.643 289.78 687.403C291.766 696.2 293.331 703.391 293.256 703.423C293.067 703.504 286.569 695.749 281.634 689.557C276.564 683.154 272.492 677.62 270.524 674.332L269.041 671.864L266.668 671.854C263.396 671.828 259.972 671.554 255.2 670.899C250.655 670.302 239.689 668.328 238.745 667.951C238.368 667.8 238.201 667.827 238.314 668.091C238.395 668.28 240.756 669.411 243.684 670.612L248.909 672.793L248.99 674.233C249.266 678.313 248.11 689.732 247.393 690.039C246.563 690.395 239.773 683.525 237.017 679.547C235.076 676.739 232.627 671.29 231.882 668.148L231.407 666.051L227.654 664.333C224.063 662.679 218.536 660.002 216.341 658.844C198.051 649.066 184.333 638.802 174.032 627.184C166.094 618.26 159.557 607.081 156.961 598.01C156.119 595.11 155.482 592.167 155.698 592.253C155.752 592.274 156.761 593.428 157.931 594.802C160.509 597.895 163.642 601.085 165.966 603.014C167.843 604.577 171.013 606.657 171.278 606.543C171.391 606.495 170.959 605.853 170.366 605.147C167.831 602.103 163.883 595.867 162.594 592.913C161.828 591.232 161.283 589.701 161.348 589.539C161.412 589.377 163.396 589.107 165.742 588.95C168.071 588.755 171.111 588.344 172.437 587.998C189.031 583.717 216.533 585.232 232.795 591.323C237.044 592.895 237.271 592.954 237.966 592.544C239.281 591.757 243.971 588.316 247.906 585.198L251.782 582.151L252.143 583.671C252.942 587.304 255.423 590.796 259.068 593.566C263.172 596.675 266.122 600.948 269.612 608.877L271.829 613.89L275.232 615.78C278.214 617.472 278.672 617.655 279.244 617.477C299.002 610.677 311.838 607.739 319.256 608.265C319.826 608.298 320.393 608.339 320.842 608.371ZM199.545 606.273C202.194 607.331 205.199 606.042 206.258 603.393C207.317 600.745 206.028 597.739 203.379 596.681C200.73 595.623 197.725 596.912 196.666 599.561C195.607 602.21 196.896 605.215 199.545 606.273Z" fill="#58A4FB"/>
<path fill-rule="evenodd" clip-rule="evenodd" d="M475.002 566.897C478.178 564.938 480.4 563.694 487.699 559.919C488.229 559.61 492.452 557.961 497.043 556.204C504.144 553.5 505.963 552.893 509.217 552.274C516.063 550.938 521.186 550.72 525.417 551.638L527.594 552.124L528.982 556.208C530.822 561.623 531.675 565.915 533.211 577.753C534.852 590.474 535.119 591.947 536.012 594.236C537.173 597.209 538.097 597.294 540.277 594.627C543.847 590.253 548.038 580.359 549.81 571.993L550.297 569.816L551.099 570.291C553.559 571.763 560.637 580.855 564.446 587.454C567.123 592.028 571.799 604.011 572.629 608.244C573.418 612.459 573.738 616.616 573.501 620.135L573.483 620.437C573.393 621.966 573.347 622.755 572.929 623.137C572.485 623.544 571.62 623.492 569.835 623.384L569.449 623.361C563.944 623.043 558.693 620.913 549.569 615.361C544.521 612.26 542.72 611.421 541.315 611.422C539.951 611.44 540.191 611.792 543.774 615.087C553.668 624.108 557.542 630.784 556.735 637.232C556.232 641.3 553 645.748 548.331 648.976C544.998 651.236 534.258 655.325 528.724 656.423C521.741 657.847 516.949 658.039 513.555 657.068L511.769 656.532L509.976 658.259C507.837 660.328 505.392 661.967 502.107 663.558C500.744 664.193 499.63 664.765 499.612 664.806C499.474 665.066 507.64 667.463 508.802 667.455C509.632 667.473 513.204 667.758 516.74 668.125C529.379 669.427 537.392 669.589 542.972 668.609C544.676 668.321 546.172 668.114 546.254 668.151C546.491 668.23 541.644 672.931 538.903 675.303C534.735 678.849 531.952 680.586 527.741 682.264C524.975 683.343 523.282 683.833 521.745 684.022C513.201 684.959 504.767 681.261 495.764 672.681L492.853 669.877L488.929 670.621C484.773 671.386 478.871 671.806 474.919 671.601C468.028 671.242 460.896 668.509 452.63 663.136C446.799 659.347 442.902 657.614 439.508 657.26C437.933 657.087 434.493 657.23 430.239 657.657C414.564 659.287 408.414 659.598 408.564 658.751C408.595 658.568 409.161 658.176 409.845 657.909C411.927 657.096 416.872 654.138 419.057 652.36C428.743 644.605 433.225 634.05 433.547 618.369C433.693 610.843 435.986 604.603 441.585 596.558C448.504 586.628 460.945 575.571 475.002 566.897ZM448.42 622.001C450.726 621.101 451.866 618.501 450.966 616.195C450.066 613.889 447.467 612.749 445.16 613.649C442.853 614.55 441.713 617.149 442.613 619.456C443.513 621.762 446.113 622.902 448.42 622.001Z" fill="#58A4FB"/>
<path fill-rule="evenodd" clip-rule="evenodd" d="M674.944 524.652C680.069 517.07 685.173 511.555 689.568 508.853C691.62 507.601 691.641 507.575 691.369 507.052C690.663 505.831 683.11 504.595 676.702 504.63C672.693 504.649 668.276 505.337 666.563 506.168C664.052 507.396 661.381 511.403 657.812 519.155C653.407 528.75 648.227 535.809 643.26 539.005L641.753 539.958L643.47 536.917C645.709 532.908 647.232 529.624 650.326 521.922C654.604 511.357 657.499 505.621 660.172 502.311L661.233 500.997L663.774 501.398C670.315 502.382 680.296 501.845 685.577 500.25C692.227 498.196 697.369 494.838 703.378 488.578C706.706 485.102 708.666 483.212 714.477 477.79C716.834 475.569 718.794 473.679 718.789 473.632C718.711 473.352 713.617 466.115 711.851 463.734C707.599 458.088 704.68 455.038 698.98 450.219C693.41 445.506 693.331 445.443 680.641 437.455C674.724 433.764 667.272 427.835 663.167 423.566C661.629 421.978 657.305 417.012 653.544 412.586C645.811 403.35 642.138 399.299 640.586 398.264C639.603 397.6 639.413 397.621 638.334 398.312C636.398 399.527 633.361 403.933 632.149 407.208C630.862 410.683 629.656 416.263 629.203 420.585C627.145 440.711 631.448 468.707 638.547 481.469L639.997 484.028L637.703 487.514C634.208 492.809 623.353 506.79 621.479 508.358C620.314 509.371 618.85 510.055 615.189 511.31C610.467 512.966 605.658 514.944 603.226 516.236L601.931 516.926L603.118 515.671C603.769 515.025 605.78 513.61 607.641 512.595C614.145 508.948 615.301 507.624 615.139 503.848C615.093 502.292 613.966 499.602 613.444 499.658C613.275 499.652 612.84 500.299 612.488 501.057C611.518 503.225 608.203 506.148 608.956 504.195C609.58 502.615 608.248 497.547 606.674 495.626C605.73 494.43 605.212 494.749 604.812 496.857C604.243 500.087 601.557 503.951 595.913 509.812C593.576 512.222 592.791 513.194 592.349 514.226C591.565 516.111 591.884 519.102 593.07 521.449L594.074 523.431L592.186 525.77C589.979 528.502 588.58 531.149 587.079 535.319C581.763 550.341 582.732 569.352 589.09 574.485C590.115 575.312 590.431 575.35 592.057 575.057C597.003 574.145 609.926 566.956 622.868 557.916C629.884 552.99 634.125 549.512 636.442 546.695C637.126 545.902 637.475 545.793 639.141 545.879C642.648 546.106 647.058 545.803 649.972 545.204C659.813 543.122 665.732 538.265 674.944 524.652ZM598.06 518.011C598.67 517.202 598.765 517.192 599.026 517.836C599.375 518.64 598.659 519.58 596.983 520.528C596.417 520.852 597.051 519.368 598.06 518.011ZM601.322 560.789C602.2 559.702 603.793 559.532 604.88 560.409C605.967 561.287 606.136 562.879 605.259 563.966C604.381 565.053 602.788 565.223 601.701 564.346C600.614 563.468 600.444 561.876 601.322 560.789Z" fill="#58A4FB"/>
<path fill-rule="evenodd" clip-rule="evenodd" d="M703.411 305.797C702.883 304.103 702.46 302.68 702.51 302.567C702.616 302.277 697.32 289.572 695.686 286.219C685.866 266.048 677.358 254.455 663.394 242.349C661.395 240.63 659.216 238.608 658.547 237.839L657.308 236.48L657.579 237.589C657.7 238.227 658.483 240.663 659.261 243.007C660.039 245.352 660.682 247.344 660.686 247.436C660.689 247.507 660.96 248.417 661.323 249.635L661.324 249.638C661.432 250 661.548 250.389 661.667 250.791C662.189 252.55 662.627 254.092 662.641 254.211C662.666 254.357 662.848 254.909 663.03 255.461C663.372 256.512 663.372 256.512 662.759 255.97C661.756 255.143 657.152 249.73 655.079 247.013C650.96 241.569 649.315 238.749 647.306 233.613C645.797 229.776 645.42 228.553 645.336 227.123C645.284 226.179 645.53 221.729 645.95 217.243C646.937 206.069 646.727 201.484 644.862 195.67C642.856 189.411 637.829 183.384 631.111 179.189C628.651 177.648 624.759 175.538 624.863 175.809C624.873 175.836 625.526 176.643 626.285 177.564C628.998 180.812 630.268 183.06 632.131 187.818C633.998 192.667 634.318 194.224 634.156 197.521C633.874 202.607 630.651 206.274 625.34 207.511C620.375 208.676 616.166 206.875 612.829 202.249C609.874 198.13 606.766 190.057 604.718 181.264C603.818 177.473 602.562 171.705 601.754 167.91C601.247 165.461 600.731 163.233 600.61 163C600.516 162.756 600.513 165.09 600.601 168.229C601.252 191.495 602.283 199.342 605.796 208.224C608.061 213.946 610.926 217.913 617.499 224.559C624.486 231.636 625.746 233.049 626.634 234.791C627.821 237.227 627.675 238.465 625.597 243.247C618.72 259.085 615.061 282.549 616.906 298.574C617.65 304.789 618.247 307.39 620.098 312.681C622.011 318.135 623.277 320.696 625.961 324.515C627.513 326.686 627.901 327.532 630.471 333.884C633.562 341.59 634.987 344.401 639.383 351.294C643.542 357.812 648.532 364.227 654.337 370.577C659.425 376.115 668.109 383.721 670.133 384.372C670.638 384.551 670.855 384.468 671.167 384.067C671.826 383.192 672.267 383.208 673.677 384.283C674.43 384.864 675.228 385.241 675.445 385.158C676.014 384.939 685.549 374.392 689.083 370.076C698.858 358.131 704.189 347.493 706.095 336.12C707.599 327.017 706.614 315.732 703.411 305.797ZM681.988 361.085C681.232 359.123 682.21 356.921 684.172 356.166C686.134 355.41 688.336 356.388 689.091 358.349C689.846 360.311 688.868 362.513 686.907 363.268C684.945 364.024 682.743 363.046 681.988 361.085Z" fill="#58A4FB"/>
<path fill-rule="evenodd" clip-rule="evenodd" d="M510.067 39.5535C509.102 38.6067 507.473 37.1837 506.476 36.3522C503.481 33.9227 500.022 32.4313 497.75 32.6131C497.268 32.6402 495.992 32.4184 494.863 32.1132C492.405 31.3883 489.736 31.4457 487.525 32.2287C486.478 32.6037 485.301 32.738 484.476 32.6044C482.127 32.2752 480.262 32.387 478.37 33.0175C477.377 33.3563 476.38 33.5258 476.153 33.3971C475.446 32.9966 473.45 32.8676 472.317 33.1602C471.698 33.3103 470.605 33.8259 469.905 34.2968C469.179 34.7534 468.446 35.1056 468.24 35.056L468.163 35.0374C467.891 34.9722 467.258 34.8204 466.636 34.6482C464.992 34.2515 462.981 34.6807 461.926 35.7183C461.352 36.2607 460.647 36.5624 459.733 36.6452C457.76 36.8294 454.836 37.8096 453.579 38.7327C451.568 40.163 451.088 41.8933 451.955 44.4861C452.451 45.9677 454.346 49.0425 455.496 50.1938C455.915 50.6315 455.731 50.661 454.103 50.473C439.645 48.7262 429.934 45.4302 423.298 40.0048C420.653 37.8404 420.013 37.1443 411.904 27.7819C404.785 19.6146 400.341 14.7963 396.6 11.2103C385.161 0.363097 377.15 -1.87014 370.773 4.028C368.642 6.02406 365.02 11.9473 363.941 15.2068C362.952 18.2497 362.343 21.9755 362.181 25.8542C361.801 35.4807 361.54 38.0023 360.462 41.4957C359.619 44.2213 356.837 49.2517 354.711 51.8852C351.5 55.9056 349.819 59.992 349.498 64.4475C349.35 66.2989 349.531 67.5692 350.236 70.0366C351.688 75.1296 354.099 78.296 358.882 81.3378C367.127 86.5731 378.596 87.0607 392.055 82.7369C402.46 79.3866 412.048 79.7771 422.482 83.9164C425.833 85.2462 431.538 88.3096 434.929 90.6295L437.001 92.0364L436.107 92.7313C434.901 93.6831 434.227 95.4033 434.228 97.6395C434.219 99.069 434.024 99.8259 433.284 101.309C431.586 104.718 431.206 108.807 432.405 110.52C433.143 111.572 433.171 112.288 432.592 115.196C431.616 119.982 433.024 123.682 436.077 124.476C439.862 125.451 448.186 122.891 459.076 117.446L463.656 115.135L466.655 117.967C472.941 123.895 479.141 129.207 484.457 133.251C487.874 135.819 499.942 142.552 504.613 144.496C522.51 151.893 541.287 155.618 561.393 155.758C579.407 155.881 595.283 152.592 597.744 148.247C598.287 147.287 598.28 147.182 596.978 144.71C589.199 129.697 574.937 112.347 558.955 98.3271C551.729 92.0002 540.922 83.7468 534.265 79.4773C532.731 78.4752 531.211 77.4477 530.886 77.1969C530.561 76.9461 527.449 75.0176 523.955 72.9394C520.476 70.8358 517.577 69.0613 517.58 68.9965C517.544 68.9426 517.701 67.4297 517.949 65.6355C519.471 53.8188 517.573 44.5038 513.127 41.9864C512.394 41.5715 511.047 40.475 510.067 39.5535ZM566.927 127.091C564.968 125.982 564.279 123.494 565.389 121.534C566.498 119.575 568.987 118.885 570.946 119.995C572.906 121.104 573.595 123.592 572.485 125.552C571.375 127.511 568.887 128.201 566.927 127.091Z" fill="#58A4FB"/>
</svg>
