<svg width="1310" height="1301" viewBox="0 0 1310 1301" fill="none" xmlns="http://www.w3.org/2000/svg">
<path fill-rule="evenodd" clip-rule="evenodd" d="M492.483 1.6029C492.335 1.77495 489.636 2.19743 486.405 2.66099C467.373 5.20064 447.851 12.4913 433.925 22.1888C416.546 34.3486 403.096 51.6147 390.991 77.2928C386.619 86.5745 376.648 110.749 376.734 111.867C376.767 112.293 378.025 113.321 379.585 114.111C382.485 115.601 382.862 116.322 381.929 118.108C381.511 118.943 381.544 119.369 382.241 120.065C384.924 122.911 404.425 131.315 417.647 135.383C432.785 139.999 447.387 143.21 461.5 144.96C476.425 146.808 482.22 146.95 497.464 145.988C510.046 145.231 511.758 145.206 516.591 146.065C525.056 147.501 530.311 147.577 540.882 146.44C551.133 145.328 555.924 144.262 566.834 140.582C594.907 130.971 630.979 106.336 651.841 82.392C658.138 75.1577 660.079 73.9368 665.063 73.9806C668.659 74.0781 672.002 75.052 689.282 81.0562C705.519 86.7125 714.374 88.3323 725.669 87.5679C743.198 86.376 757.044 81.8799 796.198 64.5586C801.481 62.2229 805.355 60.3708 804.876 60.4077C804.392 60.3915 800.285 61.2976 795.817 62.3921C788.875 64.0525 778.301 66.5287 771.293 68.0334C755.072 71.5881 739.206 72.8123 730.027 71.164C719.706 69.2824 713.385 63.718 711.392 54.5525C709.244 44.7564 712.785 36.5029 721.008 32.0122C726.356 29.1359 729.194 28.4349 738.724 27.6995C748.099 27.0297 752.837 27.3603 760.378 29.2958C762.508 29.8277 764.363 30.2737 764.416 30.2696C764.949 30.2285 758.366 25.4341 753.86 22.5683C741.58 14.7322 727.592 11.1518 715.613 12.7724C704.482 14.274 696.701 17.5523 678.924 28.0289C671.807 32.2736 664.612 36.203 663.003 36.8628C660.562 37.8545 658.232 38.1949 650.667 38.7251C640.547 39.4524 634.563 38.95 622.264 36.4177C616.112 35.125 603.48 31.7613 601.313 30.7502C599.929 30.1608 599.929 30.1608 601.944 29.8982C603.005 29.7628 604.065 29.6274 604.328 29.5536C604.536 29.4839 607.444 28.9918 610.778 28.4668C611.542 28.3464 612.281 28.2308 612.969 28.1233C615.28 27.7618 617.006 27.4919 617.126 27.4414C617.281 27.3758 621.098 26.8671 625.608 26.3049C630.117 25.7428 634.781 25.115 635.936 24.8117L637.992 24.3853L634.756 23.4031C632.95 22.8997 627.867 20.8818 623.431 18.9211C592.281 5.31054 566.297 0.352783 525.03 0.00206741C518.17 -0.0577546 492.88 1.19734 492.483 1.6029ZM411.537 81.9628C415.391 81.6653 418.275 78.2995 417.978 74.445C417.68 70.5905 414.314 67.7068 410.46 68.0042C406.605 68.3017 403.722 71.6675 404.019 75.522C404.317 79.3766 407.682 82.2602 411.537 81.9628Z" fill="#58A4FB"/>
<path fill-rule="evenodd" clip-rule="evenodd" d="M160.14 186.254C159.13 195.688 154.009 208.526 145.471 223.031C130.152 249.095 126.767 262.764 131.095 280.751C132.405 286.063 135.392 293.626 138.542 299.269C140.004 301.967 140.098 302.632 139.322 304.396C136.478 310.471 134.057 320.263 131.426 335.809C126.651 364.449 124.935 391.593 127.334 400.526C128.133 403.458 128.447 403.953 130.631 405C144.186 411.498 176.523 398.07 197.266 377.361C203.004 371.57 206.292 367.154 209.084 361.329L211.474 356.344L215.56 356.443C220.396 356.557 225.616 354.72 228.126 351.927C229.489 350.377 230.482 348.304 232.637 342.518C237.905 328.511 242.197 320.994 247.112 317.496C250.296 315.165 250.416 314.051 247.683 313.43C243.248 312.337 233.776 314.133 231.647 316.419C228.999 319.213 231.23 311.397 234.064 308.072C235.045 306.889 235.775 305.654 235.631 305.379C235.31 304.467 229.953 304.723 227.333 305.878C220.932 308.596 219.648 311.562 218.736 325.246C218.523 329.139 217.764 333.597 217.207 335.19L216.061 338.154L216.183 335.457C216.405 330.397 215.885 320.848 214.899 311.697C214.087 304.626 214.066 301.653 214.826 298.918C215.948 294.565 230.579 265.484 236.608 255.494L240.583 248.927L245.979 249.309C272.789 251.003 322.686 236.005 354.481 216.668C361.302 212.499 369.613 206.082 374.366 201.197C378.846 196.594 383.76 188.066 384.247 183.891C384.541 181.552 384.425 181.221 382.545 180.113C379.598 178.356 369.966 175.46 348.509 169.927C338.184 167.181 326.517 163.93 322.662 162.633C312.325 159.193 296.584 151.509 285.773 144.604C262.469 129.85 262.301 129.77 250.068 124.25C237.556 118.596 230.181 116.162 217.441 113.568C212.09 112.518 196.042 109.784 195.515 109.876C195.433 109.905 193.845 114.655 192.022 120.325C187.614 134.261 186.026 139.011 182.885 147.286C177.243 162.216 175.735 173.409 177.584 186.075C179.112 196.107 186.118 213.104 192.925 223.187L195.602 227.087L194.259 229.888C190.876 236.945 183.641 246.289 169.479 261.749C159.136 272.978 154.888 278.105 150.001 284.993L146.31 290.249L146.701 286.992C148.077 276.218 155.704 262.033 168.153 247.13C178.204 235.072 182.745 227.468 182.799 222.327C182.824 218.826 180.47 210.947 177.331 204.276C172.32 193.608 164.293 182.045 161.706 181.838C160.622 181.8 160.595 181.856 160.14 186.254ZM217.322 345.439C218.183 343.786 218.125 343.62 216.848 343.697C215.238 343.751 214.242 345.685 213.995 349.217C213.904 350.414 215.867 348.186 217.322 345.439ZM143.7 373.857C144.811 371.54 143.833 368.761 141.516 367.65C139.199 366.539 136.42 367.517 135.309 369.834C134.198 372.151 135.176 374.93 137.493 376.041C139.81 377.152 142.589 376.174 143.7 373.857Z" fill="#58A4FB"/>
<path fill-rule="evenodd" clip-rule="evenodd" d="M233.487 588.433C234.228 581.609 234.536 576.937 235.03 561.831C235.125 560.706 234.522 552.391 233.809 543.377C232.681 529.449 232.25 525.948 230.704 520.056C227.507 507.632 223.817 498.952 218.945 492.653L216.415 489.423L208.535 490.348C198.087 491.576 190.284 493.555 169.41 500.367C146.984 507.704 144.329 508.427 139.82 508.754C133.964 509.179 133.092 507.711 135.797 501.982C140.237 492.594 153.351 477.81 165.844 468.25L169.074 465.72L167.651 464.764C163.26 461.845 142.561 457.283 128.589 456.177C118.875 455.351 95.2762 457.063 87.59 459.034C79.9666 461.058 72.8083 463.815 67.1522 466.992C66.9851 467.084 66.8229 467.173 66.6655 467.26C64.1964 468.619 62.9238 469.32 62.619 470.316C62.2949 471.376 63.0655 472.771 64.6557 475.648C64.7665 475.849 64.8812 476.057 64.9998 476.272C69.8829 485.16 77.5749 492.195 94.0136 502.953C103.156 508.882 105.974 511.209 107.085 513.542C108.133 515.821 107.359 515.7 99.052 512.359C76.2442 503.064 62.0918 501.913 52.022 508.353C45.6642 512.405 40.8343 521.291 39.1683 531.596C38.0512 538.917 39.7561 559.985 42.3105 570.043C45.4703 582.764 48.9428 590.871 53.24 595.739L55.5435 598.28L54.0926 602.624C52.3498 607.813 51.561 613.168 51.5182 619.882C51.5422 622.647 51.4737 624.947 51.4193 625.01C51.0977 625.445 40.6565 613.782 39.7509 611.846C39.0633 610.484 35.765 604.777 32.358 599.197C20.1967 579.241 13.5897 566.063 10.801 556.023C9.93176 552.966 9.09222 550.319 8.96661 550.21C8.64834 549.88 4.67496 561.647 2.90431 568.074C0.31325 577.799 -0.370302 583.794 0.174348 592.113C0.569407 597.559 1.09583 600.758 1.99818 603.46C7.20167 618.387 20.014 629.466 41.3857 637.629L48.345 640.244L50.2143 647.349C52.2305 654.855 56.203 664.986 59.6695 671.386C65.7179 682.544 75.8976 692.225 91.3602 701.699C102.264 708.384 108.227 713.485 111.5 718.84C113.033 721.319 115.516 727.143 118.172 734.544C127.865 761.861 132.215 772.318 133.502 771.4C133.782 771.203 133.986 769.952 133.888 768.605C133.59 764.506 134.591 753.956 135.815 748.922C141.032 726.705 155.015 710.915 180.802 697.977C193.185 691.781 201.734 683.038 210.664 667.379C221.681 648.037 230.203 618.634 233.487 588.433ZM163.004 676.155C162.674 671.613 166.089 667.663 170.631 667.334C175.174 667.004 179.123 670.419 179.452 674.961C179.782 679.504 176.367 683.453 171.825 683.783C167.283 684.112 163.333 680.697 163.004 676.155Z" fill="#58A4FB"/>
<path fill-rule="evenodd" clip-rule="evenodd" d="M286.566 877.206C286.186 876.537 285.9 876.032 285.801 875.835C285.56 875.467 284.453 874.226 283.276 873.138L281.234 871.178L281.285 876.315C281.454 891.16 278.091 910.375 273.929 918.89C272.216 922.397 269.679 925.142 267.768 925.557C266.005 925.891 260.573 924.215 256.94 922.167C254.544 920.825 252.264 918.572 250.295 915.588C249.451 914.299 249.414 914.338 248.345 915.967C247.136 917.904 246.789 917.729 245.077 914.547C244.504 913.436 243.458 911.814 242.782 910.972C241.666 909.504 241.552 909.471 241.065 910.548C240.751 911.203 240.146 912.171 239.639 912.72L238.772 913.737L230.16 905.196L229.664 906.991C228.741 910.428 228.288 910.446 225.326 907.2C224.953 906.776 224.546 906.316 224.133 905.85L224.114 905.828C223.002 904.572 221.856 903.278 221.252 902.561C219.626 900.622 219.439 900.667 218.417 903.504C218.006 904.578 217.519 905.655 217.301 905.891C217.048 906.165 215.645 905.087 213.168 902.652C209.003 898.584 208.04 898.131 207.619 899.923C207.417 900.536 206.957 901.348 206.517 901.667C205.747 902.264 205.668 902.192 204.046 899.384C201.571 895.06 200.714 894.413 198.715 895.475C196.161 896.822 193.96 896.606 190.898 894.649C185.087 891.023 181.493 885.156 180.001 877.015C179.622 875.064 178.916 864.814 178.428 854.328C177.43 833.772 176.412 825.196 173.501 813.634C171.706 806.449 167.091 792.876 166.411 792.903C166.261 792.909 164.128 800.172 161.717 808.997C154.807 834.096 150.066 847.093 144.355 856.576C133.568 874.383 120.312 883.219 69.9365 906.174C69.1269 906.546 68.3727 906.891 67.6723 907.211C62.4801 909.585 60.2459 910.606 60.3201 911.416C60.3762 912.027 61.7489 912.518 64.1583 913.38C64.5795 913.53 65.0328 913.692 65.5158 913.868C78.9323 918.706 94.0612 917.128 120.456 908.002C138.984 901.567 149.139 899.391 156.464 900.199C164.511 901.091 170.831 905.188 173.254 911.063C174.342 913.741 174.372 914.496 173.565 917.022L172.624 920.006L174.688 921.55L176.754 923.169L175.504 924.05L174.218 924.969L176.963 927.507C180.139 930.442 180.711 932.498 178.721 933.786C177.616 934.51 177.619 934.585 179.719 936.089C182.132 937.884 184.258 941.012 184.167 942.527C184.115 943.134 183.626 944.136 183.006 944.727C182.953 944.781 182.902 944.833 182.853 944.882C182.471 945.27 182.221 945.522 182.215 945.78C182.204 946.26 183.038 946.759 185.426 948.19C185.629 948.311 185.842 948.439 186.068 948.574C190.171 951.058 190.901 952.314 189.589 954.52C189.535 954.61 189.482 954.695 189.433 954.774C189.174 955.194 189.004 955.47 189.026 955.73C189.067 956.231 189.82 956.672 192.02 957.963C192.252 958.099 192.5 958.244 192.765 958.4C195.354 959.848 196.175 960.533 196.201 961.213C196.234 962.043 194.252 964.501 192.776 965.391C191.559 966.157 195.218 968.885 199.82 970.593L203.924 972.132L206.532 977.886C207.939 981.005 209.145 983.792 209.196 984.13C209.208 984.432 195.994 987.635 179.889 991.292C163.708 994.952 150.528 998.041 150.534 998.192C150.549 998.569 168.569 1003.23 182.756 1006.52C197.399 1009.88 209.812 1012.26 216.829 1012.93L222.102 1013.44L223.995 1017.37C226.626 1022.78 229.789 1028.25 234.653 1035.65C239.239 1042.73 251.194 1059.38 252.566 1060.65C253.115 1061.15 253.202 1061.45 252.674 1061.47C252.297 1061.49 248.55 1058.46 244.239 1054.55L236.484 1047.6L234.029 1048.6C227.034 1051.37 208.986 1062.32 209.043 1063.76C209.108 1065.42 225.889 1071.26 234.675 1072.69C240.874 1073.69 251.861 1073.45 257.669 1072.2L261.527 1071.33L267.349 1076.2C272.936 1080.85 281.754 1087.91 285.414 1090.64C316.12 1113.28 344.018 1127.94 371.462 1135.85C392.563 1141.97 416.298 1143.99 433.417 1141.12C438.898 1140.22 444.29 1138.95 443.976 1138.66C443.898 1138.59 441.185 1137.83 437.977 1136.97C430.8 1135.14 423.024 1132.46 417.982 1130.13C413.902 1128.25 407.94 1124.63 407.919 1124.1C407.91 1123.87 409.317 1124.08 410.958 1124.51C418.02 1126.31 431.499 1127.93 437.424 1127.74C440.823 1127.68 443.796 1127.37 444.014 1127.14C444.231 1126.9 443.111 1123.39 441.516 1119.38C439.998 1115.35 438.275 1109.98 437.799 1107.51C431.782 1076.57 407.51 1032.1 384.53 1009.92C378.558 1004.1 378.28 1003.78 378.411 1002.3C378.678 999.49 380.683 988.981 382.747 979.982L384.742 971.136L381.932 971.738C375.266 973.285 367.504 971.928 360.021 968.066C351.611 963.711 342.18 962.193 326.252 962.669L316.173 962.952L310.342 958.798C305.173 955.185 304.507 954.569 304.351 953.479C300.013 915.294 294.737 891.657 287.996 879.754C287.49 878.835 286.974 877.925 286.566 877.206ZM386.006 1076.95C382.153 1073.39 381.916 1067.38 385.477 1063.53C389.039 1059.67 395.049 1059.44 398.902 1063C402.755 1066.56 402.992 1072.57 399.431 1076.42C395.869 1080.27 389.859 1080.51 386.006 1076.95Z" fill="#58A4FB"/>
<path fill-rule="evenodd" clip-rule="evenodd" d="M723.073 1056.46C700.65 1030.11 676.121 1013.8 653.262 1009.88C644.119 1008.33 631.794 1009.63 621.966 1013.25C609.549 1017.75 584.752 1030.98 554.47 1049.12C535.93 1060.28 528.167 1064.54 522.388 1066.73C520.497 1067.47 518.82 1068.17 518.711 1068.28C518.601 1068.38 521.086 1071.12 524.144 1074.36C527.255 1077.61 534.868 1085.89 541.081 1092.75C556.712 1110.09 563.247 1115.03 571.29 1115.85C573.315 1116.01 574.961 1116.38 574.954 1116.6C574.934 1117.29 572.168 1124.26 570.801 1127.21C566.654 1135.75 561.331 1136.93 550.369 1131.75C547.418 1130.33 541.885 1127.71 538.089 1125.95C519.644 1117.24 505.84 1114.28 496.36 1116.94C493.075 1117.86 488.296 1120.55 488.27 1121.46C488.265 1121.63 488.481 1123.05 488.767 1124.94L488.852 1125.5C488.909 1125.88 488.967 1126.27 489.027 1126.66C489.515 1130.1 489.675 1135.66 489.477 1146.18C489.201 1163.1 489.336 1163.96 493.673 1171.03C497.039 1176.52 497.744 1179.86 496.498 1184.15C495.968 1185.84 494.977 1188.7 494.283 1190.55C492.671 1194.56 493.096 1196.5 495.604 1196.57C500.568 1196.71 513.793 1192.02 528.638 1184.86C549.172 1174.94 556.589 1171.57 560.629 1170.41C562.999 1169.73 565.151 1169.2 565.471 1169.21C566.112 1169.23 564.023 1173.12 561.862 1175.78C560.921 1176.93 554.101 1183.68 546.628 1190.83C531.517 1205.36 528.372 1208.79 527.082 1212.76C526.731 1213.82 526.943 1213.88 530.83 1214.31C539.194 1215.14 545.727 1218.27 575.509 1235.85C611.28 1256.92 616.864 1259.65 627.072 1261.33C639.781 1263.35 653.339 1260.06 667.422 1251.55C675.144 1246.86 682.912 1240.56 697.678 1226.89C705.584 1219.53 713.641 1212.5 715.496 1211.16C719.039 1208.7 722.511 1206.88 723.525 1206.91C723.899 1206.92 722.184 1208.95 719.815 1211.45C717.39 1214 710.606 1221.38 704.645 1228C689.628 1244.76 680.049 1254.58 668.356 1265.41C651.229 1281.26 638.75 1289.77 626.173 1294.21C623.314 1295.2 623.204 1295.3 625.08 1295.09C636.34 1293.65 655.044 1284.2 671.593 1271.7C686.833 1260.12 704.193 1243.58 714.392 1230.84C715.664 1229.33 716.766 1228.19 716.921 1228.35C717.077 1228.52 716.163 1230.57 714.81 1232.99C712.495 1237.31 710.327 1240.23 696.555 1258.32C688.225 1269.24 682.133 1278.52 679.005 1285.11C676.727 1289.96 673.869 1298.26 673.812 1300.24C673.795 1300.83 676.04 1297.1 678.808 1291.89C684.634 1280.73 689.172 1273.44 694.999 1265.91C699.662 1259.85 708.734 1250.98 712.979 1248.27C726.257 1239.89 740.924 1225.95 745.666 1217.16C749.107 1210.85 749.882 1206.23 748.313 1201.37L747.433 1198.57L754 1195.02C783.576 1179.1 799.189 1165.72 798.591 1156.83C798.251 1151.96 785.051 1124.44 776.571 1111.05C764.517 1091.9 749.733 1076.67 733.101 1066.2C730.111 1064.3 727.98 1062.26 723.073 1056.46ZM743.722 1118.12C738.202 1117.96 733.856 1113.35 734.016 1107.83C734.176 1102.31 738.781 1097.97 744.301 1098.13C749.822 1098.29 754.167 1102.89 754.008 1108.41C753.848 1113.93 749.243 1118.28 743.722 1118.12Z" fill="#58A4FB"/>
<path fill-rule="evenodd" clip-rule="evenodd" d="M998.217 928.722C972.91 935.765 953.335 943.636 942.089 951.261C940.282 952.448 937.213 955.187 935.254 957.289C930.684 962.246 929.687 964.955 931.03 968.957C931.985 971.927 933.667 973.561 944.573 982.355C951.243 987.771 952.991 991.103 954.471 1001.61C957.197 1020.85 960.19 1027.1 968.494 1030.92L971.332 1032.2L972.315 1037.08C974.81 1048.98 972.264 1056.32 961.974 1067C957.319 1071.87 956.458 1072.51 951.235 1075.36C943.461 1079.49 927.812 1086.52 906.058 1095.62C879.937 1106.53 871.908 1110.26 871.923 1111.34C871.95 1113.16 877.077 1117.98 881.842 1120.64C892.332 1126.5 917.617 1132.18 938.818 1133.49C941.722 1133.61 944.171 1133.87 944.297 1133.99C944.381 1134.07 945.255 1137.13 946.262 1140.8C953.009 1165.74 965.515 1190.47 975.115 1197.83C978.762 1200.64 979.219 1200.68 981.626 1198.03C987.993 1191.22 992.577 1175.82 1001.15 1132.42C1006.75 1104.19 1009.32 1093.37 1011.18 1089.7C1011.78 1088.49 1011.78 1088.49 1012.68 1090.51C1017.23 1101.22 1057.08 1110.42 1073.45 1104.58C1084.37 1100.65 1086.91 1089.55 1080.69 1072.73C1079.44 1069.39 1077.47 1064.94 1076.28 1062.97C1076.22 1062.85 1076.15 1062.74 1076.09 1062.64L1075.96 1062.41C1075.06 1060.88 1074.58 1060.05 1074.75 1059.39C1074.96 1058.61 1076.11 1058.09 1078.61 1056.93C1078.86 1056.82 1079.11 1056.7 1079.38 1056.58C1082.22 1055.25 1083.34 1055.03 1083.64 1055.65C1084.58 1057.7 1088.75 1062.41 1090.72 1063.75C1093.52 1065.57 1094.77 1066.14 1096.98 1066.48C1099.14 1066.86 1101.19 1068.36 1109.51 1075.87C1125.68 1090.35 1135.08 1095.56 1140.72 1092.95C1147.27 1089.99 1144.59 1071.38 1133.01 1039.05L1128.35 1026.1L1133.91 1018.52C1157.57 986.338 1171.45 942.942 1172.25 898.619C1172.6 880.002 1170.09 861.385 1166.81 858.199C1162.61 854.115 1144.43 858.691 1116.46 870.83C1113.05 872.331 1108.34 873.892 1106.07 874.215C1079.89 878.203 1045.61 895.325 1015.74 919.43L1007.46 926.1L998.217 928.722ZM1109.74 906.82C1105.94 910.734 1099.68 910.825 1095.77 907.023C1091.85 903.222 1091.76 896.968 1095.56 893.054C1099.36 889.14 1105.62 889.049 1109.53 892.85C1113.45 896.651 1113.54 902.906 1109.74 906.82Z" fill="#58A4FB"/>
<path fill-rule="evenodd" clip-rule="evenodd" d="M1280.08 620.487C1295.29 637.431 1305.55 658.43 1308.66 679.321C1312.08 701.858 1307.2 728.104 1295.31 750.974C1288.51 764.093 1276.69 779.19 1272.32 780.365C1269.52 781.095 1266.31 779.562 1263.68 776.328C1262.4 774.812 1258.39 768.404 1254.81 762.108C1248.9 751.866 1241.43 741.165 1239.49 740.108C1237.63 739.114 1240.59 746.628 1245.86 756.495C1254.5 772.601 1257.26 780.128 1259.86 795.155C1262.4 810.187 1260.95 817.005 1253.84 823.137C1245.35 830.397 1225.33 831.996 1205.81 826.974C1183.03 821.047 1164.81 808.106 1157.9 793.001C1153.8 784.032 1153.59 768.439 1157.45 759.112C1161.85 748.502 1170.16 742.78 1187.5 738.365C1196.31 736.081 1198.44 734.768 1200.39 730.346C1202.03 726.636 1202.09 716.506 1200.48 711.821L1199.45 708.763L1197.94 712.326C1194.18 721.023 1183.26 729.267 1171.92 732.057C1159.55 735.05 1146.81 732.171 1140.54 724.934C1138.14 722.101 1134.48 714.7 1132.09 707.497C1129.37 699.414 1128.5 685.526 1130.23 677.788C1134.35 659.289 1148.02 641.717 1168.56 628.502C1170.76 627.116 1172.63 625.89 1172.76 625.743C1172.89 625.665 1172.28 623.692 1171.44 621.386L1169.93 617.18L1165.55 615.859C1148.51 610.613 1139.06 597.054 1138.95 577.639C1138.8 561.835 1143.85 547.299 1154.56 532.272C1155.52 530.963 1156.03 528.018 1156.59 521.394C1160.91 469.519 1173.63 436.747 1193.56 425.998C1201.61 421.611 1212.45 420.932 1217.53 424.43C1220.06 426.144 1219.89 427.889 1216.87 431.615L1214.22 434.833L1218.15 433.2C1220.31 432.302 1222.77 431.663 1223.68 431.883C1227.89 432.66 1241.16 456.245 1250.45 479.455C1259.67 502.67 1267.75 534.209 1271.14 560.701L1271.25 561.492L1271.34 562.113C1271.76 565.101 1272.18 568.001 1272.41 568.945C1272.63 570.111 1273.67 581.213 1274.66 593.774L1276.5 616.549L1280.08 620.487ZM1227.47 496.941C1227.76 501.586 1231.76 505.116 1236.4 504.825C1241.05 504.535 1244.58 500.534 1244.29 495.889C1244 491.245 1240 487.715 1235.35 488.005C1230.71 488.296 1227.18 492.297 1227.47 496.941Z" fill="#58A4FB"/>
<path fill-rule="evenodd" clip-rule="evenodd" d="M1081.51 113.106C1083.85 113.96 1087.5 115.54 1089.67 116.538C1096.07 119.589 1101.29 124.153 1102.78 128.069C1103.12 128.892 1104.5 130.834 1105.9 132.466C1109.04 135.976 1111.06 140.452 1111.51 144.743C1111.71 146.778 1112.42 148.838 1113.3 150.103C1115.7 153.743 1116.99 156.928 1117.44 160.568C1117.66 162.484 1118.17 164.274 1118.56 164.549C1119.79 165.407 1121.58 168.619 1121.99 170.732C1122.23 171.878 1122.24 174.1 1122.01 175.636C1121.83 177.202 1121.82 178.698 1122.07 179C1122.31 179.302 1123.15 180.343 1124.02 181.341C1125.97 183.756 1126.85 187.436 1125.96 190.008C1125.52 191.39 1125.57 192.799 1126.16 194.382C1127.41 197.804 1128.1 203.434 1127.56 206.251C1126.78 210.722 1124.28 212.887 1119.29 213.498C1116.44 213.847 1109.83 213.132 1107.01 212.134C1105.95 211.784 1106.05 212.112 1107.65 214.667C1121.99 237.293 1135.14 250.81 1149.4 257.537C1155.09 260.216 1156.75 260.728 1178.72 266.788C1197.91 272.148 1209.43 275.716 1218.34 279.091C1245.41 289.506 1255.45 301.04 1250.7 316.294C1249.07 321.411 1242.1 332.11 1237.54 336.479C1233.27 340.529 1227.57 344.487 1221.25 347.823C1205.57 356.07 1201.59 358.497 1196.64 363.049C1192.78 366.605 1186.62 375.204 1183.93 380.816C1179.8 389.328 1174.34 395.351 1167.19 399.409C1164.24 401.119 1161.98 401.822 1157.33 402.604C1147.72 404.22 1140.56 402.722 1131.72 397.186C1116.5 387.637 1106.62 368.98 1103.15 343.212C1100.49 323.285 1092.25 307.674 1077.12 293.623C1072.27 289.111 1062.67 282.061 1056.13 278.267L1052.15 275.938L1051.71 277.972C1051.08 280.728 1048.76 283.208 1045.04 284.975C1042.68 286.12 1041.57 287.043 1039.7 289.444C1035.38 294.96 1028.89 298.825 1025.1 298.19C1022.76 297.796 1021.55 298.316 1017.18 301.578C1010 306.983 1002.75 307.572 999.012 303.131C994.398 297.618 992.066 281.772 992.492 259.382L992.709 249.95L985.631 247.21C970.816 241.462 957.089 235.369 946.167 229.74C939.199 226.099 918.471 211.386 911.548 205.168C885.104 181.301 864.065 153.07 847.927 119.797C833.472 89.9836 826.375 61.0213 831.644 53.4981C832.808 51.8361 832.987 51.7661 838.123 51.973C869.209 53.0135 909.305 62.9719 945.231 78.4194C961.455 85.4144 983.71 96.8293 996.067 104.506C998.945 106.261 1001.85 107.972 1002.53 108.313C1003.2 108.655 1008.86 112.296 1015.08 116.454C1021.33 120.567 1026.57 123.977 1026.67 123.92C1026.79 123.937 1029.18 122.481 1031.96 120.649C1050.38 108.776 1067.35 104.559 1075.05 109.951C1076.32 110.839 1079.21 112.209 1081.51 113.106ZM891.156 87.9336C894.548 90.3098 899.225 89.4858 901.601 86.093C903.977 82.7002 903.153 78.0235 899.761 75.6473C896.368 73.2711 891.691 74.0951 889.315 77.4879C886.939 80.8807 887.763 85.5574 891.156 87.9336Z" fill="#58A4FB"/>
</svg>
