<svg width="355" height="135" viewBox="0 0 355 135" fill="none" xmlns="http://www.w3.org/2000/svg">
<path d="M17.2706 36.1975H10.2706V64.1136H-6.10352e-05V0.595703H10.2706V26.0358H17.2706V0.595703H27.5413V64.1094H17.2706V36.1975Z" fill="#000080"/>
<path d="M45.0815 64.7939H43.0796C34.901 64.7939 30.5373 60.611 30.5373 52.7562V40.0383H40.7178V51.138C40.7178 54.0407 41.7165 55.5787 44.0828 55.5787C46.5345 55.5787 47.4433 54.0407 47.4433 50.1155V48.6662C47.4433 44.141 46.9889 42.5185 43.264 37.9933L36.7184 30.1344C32.3547 24.8444 31.0861 20.7459 31.0861 14.4292V12.3799C31.0861 3.92524 35.6298 0 43.7184 0H45.6303C54.0833 0 57.3538 3.49849 57.3538 11.011V21.4261H47.4478V12.2912C47.4478 10.1575 46.9934 8.53497 44.5416 8.53497C42.0899 8.53497 41.541 9.98422 41.541 12.9757V14.1714C41.541 17.7587 42.2698 19.7192 45.7203 23.9021L52.2658 31.8413C56.8995 37.4736 58.3525 40.7186 58.3525 47.8888V49.938C58.3525 59.2462 54.0788 64.7939 45.0815 64.7939Z" fill="#000080"/>
<path d="M84.6215 0.595703V9.81517H71.5303V26.4626H81.8008V36.1088H71.5303V54.4632H85.1659V64.1094H61.2597V0.595703H84.6215Z" fill="#000080"/>
<path d="M112.89 52.1604H105.436L104.073 64.1136H94.8906L103.164 0.595703H115.342L124.159 64.1094H114.253L112.89 52.1604ZM111.797 42.6832L109.071 19.2079L106.434 42.6832H111.797Z" fill="#000080"/>
<path d="M136.065 64.1094H125.795V0.595703H142.427C149.242 0.595703 152.697 3.32943 152.697 10.4109V21.6796C152.697 26.9738 150.061 29.0231 148.243 29.7879C150.515 30.7259 152.697 32.4328 152.697 36.7046V58.9842C152.697 61.5447 153.241 62.7405 153.696 63.6785V64.1052H143.515C143.061 63.4207 142.517 62.3137 142.517 58.8997V39.7805C142.517 36.9623 141.972 35.7666 138.702 35.7666H136.065V64.1094ZM136.065 26.7203H138.792C141.612 26.7203 142.517 25.0133 142.517 22.1951V13.3179C142.517 10.5842 141.882 9.21941 138.792 9.21941H136.065V26.7203Z" fill="#000080"/>
<path d="M173.425 9.81517V64.1094H163.244V9.81517H154.611V0.595703H182.062V9.81517H173.425Z" fill="#000080"/>
<path d="M209.687 52.1604H202.232L200.869 64.1136H191.688L199.961 0.595703H212.139L220.956 64.1094H211.05L209.687 52.1604ZM208.598 42.6832L205.872 19.2079L203.236 42.6832H208.598Z" fill="#000080"/>
<path d="M231.868 0.595703L240.685 34.6595V0.595703H250.047V64.1094H241.684L231.868 27.5738V64.1094H222.596V0.595703H231.868Z" fill="#000080"/>
<path d="M253.867 0.595703H269.59C278.408 0.595703 281.134 5.28993 281.134 12.8024V51.4717C281.134 59.2418 278.043 64.1051 269.59 64.1051H253.867V0.595703ZM264.138 54.8899H266.59C269.68 54.8899 270.589 53.3519 270.589 49.9379V14.1714C270.589 10.4996 269.59 9.21939 267.044 9.21939H264.138V54.8899Z" fill="#000080"/>
<path d="M-6.10352e-05 69.6289H15.9671C24.9214 69.6289 27.69 74.396 27.69 82.0252V121.295C27.69 129.186 24.5514 134.125 15.9671 134.125H-6.10352e-05V69.6289ZM10.43 124.766H12.9244C16.063 124.766 16.9858 123.205 16.9858 119.737V83.4111C16.9858 79.6824 15.9716 78.3822 13.3858 78.3822H10.43V124.766Z" fill="#000080"/>
<path d="M55.1067 69.6289V78.9915H41.8167V95.8975H52.2468V105.693H41.8167V124.333H55.6641V134.129H31.3867V69.6289H55.1067Z" fill="#000080"/>
<path d="M72.2761 134.824H70.2431C61.9374 134.824 57.5059 130.576 57.5059 122.599V109.683H67.8446V120.956C67.8446 123.903 68.8588 125.465 71.2573 125.465C73.7472 125.465 74.6746 123.903 74.6746 119.917V118.445C74.6746 113.85 74.2132 112.202 70.4304 107.607L63.7831 99.63C59.3516 94.2536 58.0587 90.0915 58.0587 83.6767V81.5956C58.0587 73.0139 62.673 69.0234 70.8873 69.0234H72.8244C81.4087 69.0234 84.7301 72.5763 84.7301 80.2054V90.7823H74.6701V81.5055C74.6701 79.3386 74.2086 77.691 71.7142 77.691C69.2243 77.691 68.667 79.1627 68.667 82.2006V83.4149C68.667 87.0579 69.4071 89.0488 72.9112 93.2968L79.5585 101.359C84.2641 107.079 85.7443 110.374 85.7443 117.656V119.737C85.7535 129.19 81.4179 134.824 72.2761 134.824Z" fill="#000080"/>
<path d="M99.133 134.129H88.7031V69.6289H99.133V134.129Z" fill="#000080"/>
<path d="M112.705 135C106.615 135 102.736 129.885 102.736 123.208V82.8958C102.736 75.7 105.692 69.0234 115.565 69.0234H117.598C128.768 69.0234 130.061 75.8716 130.061 83.5008V90.0872H119.91V82.8099C119.91 79.9479 119.169 78.3861 116.588 78.3861C114.372 78.3861 113.358 79.9479 113.358 82.8099V120.522C113.358 123.556 114.651 125.118 116.771 125.118C119.448 125.118 120.65 123.384 120.65 120.956V104.831H115.944V94.9488H130.527V134.133H124.62C124.528 133.785 123.697 130.58 122.865 127.804C122.125 129.971 118.621 135 113.358 135H112.705Z" fill="#000080"/>
<path d="M143.535 69.6289L152.489 104.222V69.6289H161.997V134.129H153.504L143.535 97.026V134.129H134.119V69.6289H143.535Z" fill="#000080"/>
<path d="M189.227 134.824H187.194C178.888 134.824 174.457 130.576 174.457 122.599V109.683H184.796V120.956C184.796 123.903 185.81 125.465 188.213 125.465C190.703 125.465 191.626 123.903 191.626 119.917V118.445C191.626 113.85 191.164 112.202 187.381 107.607L180.734 99.63C176.303 94.2536 175.01 90.0915 175.01 83.6767V81.5956C175.01 73.0139 179.624 69.0234 187.838 69.0234H189.78C198.364 69.0234 201.686 72.5763 201.686 80.2054V90.7823H191.626V81.5055C191.626 79.3386 191.164 77.691 188.674 77.691C186.184 77.691 185.627 79.1627 185.627 82.2006V83.4149C185.627 87.0579 186.367 89.0488 189.871 93.2968L196.519 101.359C201.224 107.079 202.7 110.374 202.7 117.656V119.737C202.704 129.19 198.364 134.824 189.227 134.824Z" fill="#000080"/>
<path d="M222.732 121.041V106.045H232.98V120.955C232.98 127.889 230.581 134.913 220.517 134.913H218.209C207.688 134.913 205.381 127.803 205.381 121.303V81.9428C205.381 75.3564 208.428 69.0273 217.839 69.0273H220.238C231.682 69.0273 232.975 76.1373 232.975 82.4663V93.9958H222.728V82.6379C222.728 79.8618 221.805 78.39 219.219 78.39C216.633 78.39 215.989 79.7759 215.989 82.6379V120.955C215.989 123.817 217.003 125.375 219.31 125.375C221.809 125.375 222.732 123.641 222.732 121.041Z" fill="#000080"/>
<path d="M253.835 105.784H246.727V134.133H236.297V69.6289H246.727V95.4641H253.835V69.6289H264.265V134.129H253.835V105.784Z" fill="#000080"/>
<path d="M296.39 119.741C296.39 128.756 293.16 134.914 283.101 134.914H281.346C271.378 134.914 267.869 128.761 267.869 119.741V83.8483C267.869 74.9191 271.469 69.0234 281.25 69.0234H283.005C293.156 69.0234 296.386 74.9191 296.386 83.7625V119.741H296.39ZM285.778 83.3291C285.778 79.9479 284.576 78.3861 282.178 78.3861C279.501 78.3861 278.486 80.0338 278.486 83.3291V120.432C278.486 123.208 279.318 125.375 282.269 125.375C285.038 125.375 285.778 123.208 285.778 120.432V83.3291Z" fill="#000080"/>
<path d="M328.239 119.741C328.239 128.756 325.009 134.914 314.944 134.914H313.19C303.221 134.914 299.713 128.761 299.713 119.741V83.8483C299.713 74.9191 303.313 69.0234 313.099 69.0234H314.853C325.004 69.0234 328.234 74.9191 328.234 83.7625V119.741H328.239ZM317.621 83.3291C317.621 79.9479 316.42 78.3861 314.021 78.3861C311.344 78.3861 310.33 80.0338 310.33 83.3291V120.432C310.33 123.208 311.157 125.375 314.113 125.375C316.881 125.375 317.621 123.208 317.621 120.432V83.3291Z" fill="#000080"/>
<path d="M342.262 69.6289V124.157H354.999V134.125H331.832V69.6289H342.262Z" fill="#000080"/>
</svg>
