<svg width="293" height="106" viewBox="0 0 293 106" fill="none" xmlns="http://www.w3.org/2000/svg">
<path fill-rule="evenodd" clip-rule="evenodd" d="M90.171 1.28396C92.3878 1.46692 94.2446 1.59629 94.3687 1.5044C94.6941 1.29536 111.683 4.30345 116.231 5.3853C143.588 11.8871 160.094 19.1273 178.717 32.8997C181.365 34.8759 184.435 36.9885 185.559 37.5972L187.559 38.7411L186.128 38.712C185.315 38.7381 182.121 38.4464 179.041 38.1348C175.96 37.8233 173.348 37.5814 173.234 37.6013C173.147 37.6166 171.96 37.5337 170.37 37.4227C169.897 37.3897 169.388 37.3542 168.862 37.3181C166.568 37.1604 164.562 37.0456 164.413 37.0601C164.227 37.0693 163.502 36.9981 162.777 36.9269C161.399 36.7952 161.399 36.7952 162.229 37.3971C163.515 38.3978 171.394 42.5509 175.284 44.3441C183.069 47.8945 186.967 49.1372 193.799 50.1914C198.904 50.9884 200.504 51.1162 202.276 50.8283C203.445 50.6345 208.821 49.1175 214.193 47.3792C227.592 43.1208 233.259 42.1253 240.88 42.8189C249.083 43.5622 257.83 48.0651 264.797 55.1355C267.354 57.7236 270.998 61.9081 270.639 61.8545C270.603 61.8492 269.438 61.2711 268.104 60.5942C263.39 58.1632 260.292 57.2237 253.964 56.2445C247.522 55.2852 245.53 55.3197 241.541 56.4178C235.397 58.1516 231.791 63.0958 231.73 69.929C231.661 76.3196 235.014 80.9758 241.584 83.7935C247.43 86.2827 258.155 87.8797 269.47 87.9828C274.353 88.0478 281.753 88.0094 286.616 87.961C289.75 87.9127 292.616 87.9349 292.934 88.0191C293.258 88.0673 290.404 88.709 286.54 89.458C257.902 95.0154 248.022 95.8985 236.198 94.0273C228.579 92.8192 222.943 90.3981 213.018 84.1747C202.452 77.5615 200.38 76.4068 198.006 75.7959C194.702 75.0095 193.227 75.5257 187.945 79.3742C170.452 92.1091 142.749 102.993 122.642 105.112C114.837 105.899 111.492 105.879 104.514 105.061C97.3204 104.21 93.8418 103.361 88.4366 101.122C85.3569 99.8171 84.216 99.5736 75.7441 98.1649C65.4729 96.4882 61.6451 95.5136 52.0124 92.0191C42.9034 88.7129 33.6926 84.3616 24.3386 78.9957C16.1745 74.2853 4.498 65.741 3.148 63.4431C2.79117 62.875 2.83404 62.5871 3.23832 62.0955C4.12959 61.051 3.98868 60.515 2.28878 59.0847C1.37221 58.3229 0.693004 57.4492 0.735877 57.1613C0.84842 56.4055 11.1438 41.8629 15.4577 36.362C27.3986 21.1448 38.9553 11.7194 52.3459 6.28259C63.0695 1.95685 77.144 0.0797898 90.171 1.28396ZM37.4993 38C37.3612 34.2721 34.2187 31.213 30.4993 31.5C27.055 31.7657 24.6263 34.5478 24.4993 38C24.3668 41.598 26.9094 44.7239 30.4993 45C34.3539 45.2965 37.6424 41.8633 37.4993 38Z" fill="#58A4FB"/>
</svg>
