<svg width="243" height="154" viewBox="0 0 243 154" fill="none" xmlns="http://www.w3.org/2000/svg">
<path fill-rule="evenodd" clip-rule="evenodd" d="M138.592 17.6657C124.605 8.96808 112.667 3.26874 104.376 1.31048C103.061 0.979849 100.495 0.72475 98.6935 0.71151C94.4656 0.704415 92.792 1.39326 91.5143 3.71083C90.5479 5.41202 90.5071 6.88153 91.0726 15.6476C91.4012 21.0246 90.6042 23.2452 86.3805 28.3855C78.6554 37.8038 77.0359 41.8399 78.7963 47.2935L79.4066 49.1487L77.5717 51.6714C73.1347 57.872 68.669 59.8069 59.3733 59.5856C55.1474 59.505 54.4891 59.3764 50.9561 58.1754C45.7495 56.3395 35.867 52.0943 22.4351 45.9123C6.31724 38.4792 1.19227 36.3515 0.701406 36.8158C-0.129272 37.6016 -0.178212 42.0122 0.611689 45.3431C2.35682 52.6713 10.4587 66.7572 18.8484 77.1009C20.023 78.4938 20.9445 79.7327 20.9414 79.8429C20.9394 79.9164 19.8995 81.6156 18.6301 83.6392C9.97738 97.3334 3.86374 113.598 4.53633 121.154C4.7874 124.029 4.96497 124.254 7.20803 124.243C13.0524 124.295 22.1093 119.877 45.7837 105.424C61.1922 96.0348 67.2794 92.6375 69.7623 91.9343C70.1153 91.8327 70.3155 91.7751 70.3844 91.8456C70.4745 91.938 70.3395 92.2502 70.0276 92.9711C67.0121 99.6156 79.6655 121.916 89.3042 127.001C95.7548 130.378 101.956 126.837 107.087 116.832C108.099 114.838 109.316 112.041 109.722 110.655C110.131 109.345 110.305 108.653 110.725 108.434C111.216 108.177 112.046 108.569 113.986 109.376C115.803 110.125 116.38 110.546 116.222 110.946C115.671 112.254 115.268 116.177 115.484 117.653C115.831 119.722 116.102 120.538 116.879 121.7C117.619 122.86 117.796 124.446 117.858 131.47C118.031 145.078 119.614 151.63 123.213 153.127C127.355 154.897 134.815 145.765 144.83 126.704L148.829 119.057L154.693 118.411C179.586 115.683 205.508 103.682 226.315 85.2514C235.06 77.5159 242.591 68.4599 242.67 65.5944C242.772 61.9206 232.951 55.4711 215.482 47.7063C213.339 46.7644 210.623 45.2551 209.509 44.3418C196.562 33.9451 174.115 25.3803 150.316 21.8149L143.725 20.823L138.592 17.6657ZM203 53C202.724 49.4101 199.599 46.8676 196 47C192.548 47.1271 189.766 49.5557 189.5 53C189.214 56.7194 192.273 59.8619 196 60C199.864 60.1431 203.297 56.8546 203 53Z" fill="#58A4FB"/>
</svg>
