<svg width="252" height="189" viewBox="0 0 252 189" fill="none" xmlns="http://www.w3.org/2000/svg">
<path fill-rule="evenodd" clip-rule="evenodd" d="M139.814 2.8844C145.199 1.90103 148.898 1.38593 160.886 0.121597C161.776 -0.0188904 168.425 -0.0188751 175.636 0.0279541C186.781 0.121613 189.591 0.262085 194.367 1.15179C204.435 2.97806 211.553 5.41306 216.844 8.92509L219.56 10.7514L219.279 17.073C218.905 25.4551 217.781 31.7767 213.566 48.775C209.024 67.0375 208.603 69.1916 208.603 72.7973C208.603 77.48 209.82 78.0887 214.222 75.6069C221.433 71.5329 232.438 60.2476 239.321 49.7583L241.147 47.0424L241.99 48.1194C244.566 51.4441 249.389 67.6463 251.075 78.6975C252.292 86.3771 252.292 105.248 251.168 111.476C249.998 117.658 248.218 123.511 246.018 128.194C244.954 130.502 244.459 131.673 243.635 131.992C242.753 132.333 241.494 131.7 238.759 130.441C231.407 127.07 225.367 121.357 215.861 108.901C210.616 101.971 208.603 99.8633 206.683 99.1141C204.81 98.4117 204.95 99.0204 208.088 105.436C216.797 123.043 218.53 134.234 213.988 142.616C211.131 147.908 204.341 152.263 196.24 154.183C190.481 155.494 173.623 155.353 165.475 153.902C155.173 152.122 148.523 149.828 144.403 146.69L142.249 145.005L138.877 146.409C134.85 148.095 130.636 149.032 125.297 149.453C123.096 149.594 121.27 149.781 121.223 149.828C120.895 150.109 130.776 157.742 132.368 158.35C133.492 158.819 138.222 161.113 142.857 163.501C159.434 172.024 170.298 176.519 178.446 178.158C180.928 178.673 183.082 179.188 183.176 179.282C183.457 179.516 174.325 183.356 169.315 185.135C161.729 187.758 156.999 188.648 150.35 188.694C145.995 188.694 143.419 188.46 141.218 187.898C129.043 184.62 119.491 175.068 111.764 158.538L109.282 153.153L103.523 152.076C97.4351 150.905 89.1467 148.329 83.8553 145.941C74.6303 141.774 66.3419 134.234 57.913 122.481C51.966 114.192 47.5643 109.744 43.1157 107.449C41.0553 106.372 36.2789 104.733 30.2382 103.048C7.94852 96.9132 -0.620836 94.0568 0.0347429 92.9797C0.175224 92.7456 1.15859 92.5115 2.23562 92.5115C5.51351 92.5115 13.8487 91.1067 17.7822 89.8423C35.1551 84.4104 46.9087 72.3758 55.7122 51.1163C59.9266 40.908 66.3887 33.603 78.3297 25.5956C93.0802 15.715 115.979 7.23932 139.814 2.8844ZM74 64C77.7305 64 80.787 60.7194 80.5 57C80.2343 53.5557 77.4545 51 74 51C70.5455 51 67.7657 53.5557 67.5 57C67.213 60.7194 70.2695 64 74 64Z" fill="#58A4FB"/>
</svg>
