<svg width="268" height="175" viewBox="0 0 268 175" fill="none" xmlns="http://www.w3.org/2000/svg">
<path fill-rule="evenodd" clip-rule="evenodd" d="M146.583 3.31886C161.001 4.54706 172.856 3.74605 180.545 1.02264C184.123 -0.258957 184.177 -0.258942 184.55 0.595459C185.351 2.67805 179.371 13.1978 172.963 21.0477C168.958 25.9604 163.724 30.7131 161.001 31.9947C156.996 33.8637 149.413 33.1695 136.33 29.8587C120.15 25.7469 106.319 25.106 97.455 28.043L94.785 28.9509L100.232 29.8587C107.387 31.0869 112.941 32.4753 125.49 36.3201C142.738 41.5533 152.671 43.6893 159.399 43.6893H162.069L164.098 40.1649C169.385 31.1403 179.958 19.3922 187.167 14.4794C196.298 8.33844 205.537 5.34807 219.207 4.17326C226.79 3.53247 231.062 2.99846 243.504 1.23625C248.577 0.542053 252.849 0.00805664 252.902 0.0614624C253.169 0.435257 257.014 13.8921 258.189 18.4311C260.912 29.2713 261.767 35.8929 262.034 47.6943C262.301 59.2287 262.301 59.3889 259.524 82.9383C258.189 93.8853 258.082 108.944 259.257 118.236C259.684 121.707 261.5 131.959 263.209 140.984C266.893 159.674 268.228 168.218 267.961 171.155C267.801 173.024 267.587 173.238 265.665 173.878C262.247 175.053 253.81 174.412 248.577 172.65C243.023 170.781 234.96 166.723 229.193 162.985C202.386 145.523 172.215 112.415 163.564 91.0017L161.855 86.6763L155.287 86.0355C145.301 85.0743 117.32 84.5403 113.528 85.2879C111.125 85.7151 108.829 86.8365 103.649 90.0939C96.921 94.2591 89.712 98.2107 85.707 99.9195L83.571 100.827L86.2944 100.614C87.7362 100.453 91.4742 99.3855 94.5714 98.1039C105.518 93.7251 108.295 93.6183 112.781 97.5699C114.65 99.1719 116.839 103.23 116.252 103.818C116.092 104.031 114.863 103.924 113.582 103.604C109.951 102.643 103.062 103.818 106.213 104.832C108.776 105.633 113.689 112.308 114.49 116.153C115.024 118.503 114.116 118.823 111.125 117.221C106.586 114.711 99.1638 114.177 86.3478 115.299C81.0612 115.779 79.0854 115.779 77.3766 115.299C74.2794 114.391 70.9152 111.027 69.2064 107.235L67.7646 104.031H63.012C57.4584 104.031 52.8126 103.123 46.191 100.827C22.428 92.4435 0 72.3651 0 59.4423C0 57.3597 0.267 56.9325 2.2428 55.2237C8.277 50.0439 29.9574 41.2863 53.934 34.3443C66.9636 30.6062 75.4542 28.8441 81.2214 28.7906C82.8768 28.7372 83.3574 28.4169 84.906 26.2809C88.11 21.7419 92.8626 16.6154 96.4938 13.625C108.829 3.58585 120.684 1.12946 146.583 3.31886ZM78.3912 104.512C79.9932 104.565 80.1 104.458 79.566 103.497C78.9252 102.269 77.0562 102.216 74.226 103.337C73.2648 103.711 75.7212 104.405 78.3912 104.512ZM37 54C37 50.6863 34.3137 48 31 48C27.6863 48 25 50.6863 25 54C25 57.3137 27.6863 60 31 60C34.3137 60 37 57.3137 37 54Z" fill="#58A4FB"/>
</svg>
