<svg width="304" height="221" viewBox="0 0 304 221" fill="none" xmlns="http://www.w3.org/2000/svg">
<path fill-rule="evenodd" clip-rule="evenodd" d="M179.516 13.5629C165.815 7.25166 147.232 3.12022 121.642 0.689632C118.295 0.391572 115.456 0.102769 115.287 0.0658292C115.152 0.0633606 115.048 0.16307 115.045 0.332323C115.037 0.772389 123.208 3.93515 128.663 5.62616C131.256 6.45227 137.454 8.22456 142.474 9.63673C157.063 13.6615 161.905 15.5445 164.265 17.9918C165.893 19.6807 165.842 20.628 163.91 24.4192C160.154 31.7328 156.974 42.6803 151.961 65.0399C149.895 74.3822 149.166 79.042 149.082 83.6459C148.956 90.5516 150.676 94.6803 154.466 96.6796C155.841 97.4158 159.318 98.021 160.912 97.8469C162.168 97.7005 162.168 97.7005 159.804 99.2151C151.273 104.647 145.622 106.271 135.635 106.157C118.673 105.949 104.558 103.795 89.0324 99.11C73.5077 94.3909 59.9347 88.4883 36.6208 76.3806C20.7873 68.168 16.2901 65.9527 12.1203 64.3528C7.98432 62.7536 5.28482 62.2303 3.54975 62.6728C2.15504 63.0198 0.776918 64.3153 0.758403 65.3309C0.752848 65.6356 2.25506 68.6767 4.05642 72.0281C9.00322 81.1597 13.67 90.7941 14.598 93.7571C15.206 95.6983 15.4182 97.0567 15.3818 99.054C15.3501 100.791 15.3388 101.414 15.0363 101.82C14.8673 102.046 14.6074 102.205 14.2024 102.453C12.6279 103.372 12.0647 104.547 12.0541 106.985C12.023 114.265 23.0771 126.454 38.212 135.839C40.6227 137.339 42.7996 138.665 43.0341 138.805C43.3012 139.013 42.7823 139.613 41.3396 140.738C37.3197 143.916 34.4316 148.164 34.3447 151.074C34.2745 153.071 34.8013 153.893 36.4852 154.398C37.2601 154.615 45.841 157.582 55.5655 160.977C65.29 164.371 74.1737 167.445 75.3529 167.771L77.4745 168.42L75.3023 170.547C71.7164 174.071 68.088 176.206 58.2554 180.598C54.1925 182.421 52.8883 183.379 53.244 184.3C53.5332 185.152 58.068 187.164 61.9098 188.183C68.9871 190.039 77.8414 191.013 88.1003 191.098C94.4656 191.147 94.9051 191.188 94.3874 191.721C93.1785 193.019 94.735 194.944 97.6991 195.811C101.438 196.895 108.168 197.39 112.816 196.899C136.359 194.585 154.724 180.935 162.934 159.717C165.917 152.085 168.009 141.355 168.159 133.129L168.228 129.337L172.779 134.195C177.728 139.466 181.893 143.233 186.604 146.671L189.578 148.859L187.949 149.1C184.621 149.581 182.029 150.618 180.513 152.046C178.547 153.974 178.112 155.592 178.369 160.066C178.597 164.27 178.516 164.979 177.655 167.639C176.078 172.385 171.515 177.516 161.337 186C152.775 193.124 150.694 195.829 152.18 197.922C152.575 198.504 152.948 198.511 157.422 198.254C164.508 197.808 165.627 197.727 171.465 196.953C177.881 196.088 182.709 195.024 187.955 193.325C191.702 192.107 197.335 189.602 199.494 188.185C200.043 187.789 200.624 187.495 200.726 187.497C201.301 187.507 199.037 194.712 196.195 201.975C195.093 204.833 193.529 208.936 192.779 211.056C191.175 215.429 190.637 218.94 191.363 219.97C191.827 220.554 192.1 220.423 196.121 217.178C204.37 210.522 212.55 202.002 217.005 195.412C220.695 189.926 223.589 183.443 224.738 178.046C225.774 173.223 225.613 167.158 224.356 161.853L224.169 160.969L226.979 160.953C236.395 160.853 246.642 157.857 255.85 152.471C264.202 147.578 283.344 132.181 292.967 122.57C299.554 116.019 302.611 111.774 303.426 107.963C303.795 106.31 303.767 105.971 303.148 104.605C302.529 103.273 301.629 102.512 295.679 98.2383C294.997 97.7464 294.252 97.2098 293.472 96.6475C290.011 94.1525 285.849 91.1526 283.313 89.3101C267.671 77.9856 257.281 72.1073 245.874 68.1405C239.547 65.9595 231.82 64.4641 226.201 64.3617L223.425 64.3111L222.636 63.0099C222.26 62.4517 220.362 59.2174 218.075 55.3193C217.552 54.4292 217.01 53.5045 216.46 52.5692C213.505 47.5036 210.053 41.7856 208.803 39.7987C200.734 27.3256 191.572 19.0992 179.516 13.5629ZM278.999 100C278.861 95.7198 275.279 92.3619 270.999 92.5C266.859 92.6336 263.633 95.86 263.499 100C263.361 104.28 266.719 107.862 270.999 108C275.415 108.142 279.142 104.416 278.999 100Z" fill="#58A4FB"/>
</svg>
