<svg width="94" height="126" viewBox="0 0 94 126" fill="none" xmlns="http://www.w3.org/2000/svg">
<path fill-rule="evenodd" clip-rule="evenodd" d="M46.7401 96.2641L48.9128 48.3758L49.2059 41.9163L53.264 44.7098L52.1033 70.291C50.4667 106.364 50.4493 106.748 49.3743 108.918C45.6352 116.516 34.0865 123.042 21.3139 124.774C8.12098 126.544 -1.74042 120.478 0.912236 112.229C3.23834 105.029 14.4206 97.3568 26.4419 94.762C32.4999 93.4467 41.1785 93.812 45.0985 95.5491L46.7401 96.2641ZM87.995 66.052L92.0619 68.5747C90.8018 73.5633 88.4303 78.5598 84.5612 84.5951C80.6575 90.6962 78.3525 93.3322 76.9041 93.4862C76.2496 93.5625 75.693 93.5333 75.6977 93.4287C75.7025 93.3241 77.1575 90.9753 78.909 88.2404C84.5646 79.3463 87.5036 72.38 87.995 66.052Z" fill="#000080"/>
<path d="M54.8258 33.8586L53.7558 33.8694L53.264 44.7098L49.2059 41.9163L51.0871 0.452571L53.1805 0.43144C54.3435 0.4197 55.2723 0.445167 55.2707 0.480018C55.2319 2.36162 56.9954 10.6351 57.9594 12.9595C60.1735 18.4762 62.2556 20.7545 74.8004 31.2184C83.0453 38.0678 86.3297 41.5183 89.2314 46.2269C92.7386 51.9397 93.4928 54.7887 93.1569 61.1673C93.0261 63.7141 92.676 66.1435 92.0619 68.5747L87.995 66.052C88.2823 62.3517 87.7326 58.8696 86.3997 55.348C83.1617 46.7759 75.5215 39.9204 65.044 36.1592C61.3826 34.8724 56.8726 33.838 54.8258 33.8586Z" fill="#000080"/>
</svg>
