<svg width="126" height="92" viewBox="0 0 126 92" fill="none" xmlns="http://www.w3.org/2000/svg">
<path d="M89.1017 6.66021L53.396 0.966134L42.7557 33.1819C36.9031 50.9019 32.0322 65.3093 31.915 65.2103C29.4046 63.0533 25.8053 61.3568 22.138 60.6607C15.8241 59.4678 7.06346 61.3717 3.09277 64.8843C-1.01675 68.4769 -0.990043 72.8209 3.17946 76.3082C10.84 82.7274 27.4879 80.9969 32.1104 73.355C32.6103 72.5222 36.9318 59.8919 43.2845 40.6578C48.9889 23.3863 53.7148 9.30467 53.7827 9.32614C53.8505 9.34762 68.6498 11.7393 86.6599 14.6206C104.636 17.4912 119.537 19.9151 119.741 19.9795C120.046 20.0762 117.796 27.2301 110.813 48.3707L101.469 76.6612L99.9459 75.3739C98.5057 74.1748 98.0492 73.9684 93.9779 72.68C89.9744 71.4131 89.3452 71.2759 87.1891 71.3368C83.7405 71.4533 80.7607 71.9658 77.7499 73.026C73.3416 74.573 70.6513 76.8185 69.6636 79.6956C67.4071 86.414 76.4004 92.202 87.6254 91.2329C91.0524 90.9548 95.803 89.3923 98.0736 87.8501C101.233 85.6601 100.418 87.7868 113.466 48.2812C119.976 28.5704 125.19 12.4444 125.054 12.4014C124.875 12.3758 108.713 9.8004 89.1017 6.66021Z" fill="#000080"/>
</svg>
