<svg width="78" height="98" viewBox="0 0 78 98" fill="none" xmlns="http://www.w3.org/2000/svg">
<path d="M45.0635 39.3132C37.4766 75.8264 37.0641 77.6384 36.5882 77.1586C35.0443 75.585 29.4903 73.9179 25.3406 73.8038C13.7587 73.443 1.19019 80.428 0.658312 87.4896C0.392861 90.8449 2.36402 93.6519 6.31072 95.6089C8.69388 96.7795 13.6681 97.6003 17.1669 97.3844C26.5397 96.7758 35.3646 92.2239 38.0869 86.5678C38.5437 85.5817 40.2644 77.993 43.3912 62.9447C47.7747 41.8489 48.0279 40.8035 48.5387 41.2884C48.8057 41.5619 51.2975 43.4215 54.0509 45.4074C67.3533 54.976 70.5104 58.309 71.6295 64.0045C72.106 66.3864 71.1921 72.6894 69.9502 75.5497C68.8488 78.0795 66.2008 82.1664 64.3206 84.2888L62.7675 86.0497L63.71 86.1886C64.5827 86.3173 64.8802 86.0977 66.807 83.9237C70.9758 79.2708 72.9479 75.494 74.116 69.8722C75.0305 65.4713 75.0309 63.2182 74.0215 59.9383L73.4963 58.3101L74.7319 55.6537C77.3608 50.1009 78.0476 45.9298 77.2116 40.9491C76.0551 34.0483 71.7725 27.3014 62.1616 17.2819C56.8456 11.6994 55.4108 8.56175 55.9142 3.36872L56.0769 1.37361L54.5758 1.15239L53.0398 0.926034L45.0635 39.3132ZM55.5772 21.9591C62.5305 26.9343 66.8554 31.0538 69.7765 35.5225C72.2398 39.2507 73.887 43.4439 74.0129 46.3009C74.1117 48.4223 73.366 52.8773 72.6575 54.3823C72.2651 55.2316 72.2651 55.2316 70.6195 52.5896C69.0608 50.0482 65.4061 45.647 59.8816 39.6827C55.8891 35.3487 53.3761 30.6476 52.4355 25.6514C52.0165 23.512 52.0327 19.7981 52.4516 19.8598C52.5912 19.8804 53.9797 20.8166 55.5772 21.9591Z" fill="#000080"/>
</svg>
