<svg width="453" height="291" viewBox="0 0 453 291" fill="none" xmlns="http://www.w3.org/2000/svg">
<path fill-rule="evenodd" clip-rule="evenodd" d="M183.577 1.1158C184.181 1.04869 184.664 0.995064 184.961 0.957485C186.031 0.895917 191.786 1.1768 197.78 1.66014C215.261 3.08031 229.768 7.02051 260.868 18.8523C282.399 27.0387 285.359 27.9055 311.29 33.8453C350.464 42.8342 363.111 46.4124 369.947 50.6474C373.704 52.8792 374.901 54.8954 373.722 56.7698C372.334 59.0081 361.395 69.8982 351.245 79.1415C336.119 92.9182 324.303 101.686 315.018 105.899L311.21 107.679L315.284 111.938C320.13 116.932 325.184 120.559 329.125 121.798C333.003 123.033 337.759 122.188 345.227 118.995C357.915 113.479 372.93 104.715 400.677 86.5472L400.884 86.4117C438.804 61.5966 438.878 61.5478 443.631 66.9038C447.922 71.7397 451.115 82.3443 452.262 95.7125C452.754 101.137 452.629 105.333 451.893 113.444C450.846 124.674 449.422 130.674 446.051 137.75C443.254 143.606 442.262 147.624 441.91 154.567C441.569 161.322 441.774 163.153 444.686 179.513C447.757 196.384 446.769 206.613 441.164 216.441C437.871 222.205 434.805 225.221 430.365 227.089C427.021 228.458 426.072 228.589 420.134 228.235C410.198 227.579 401.482 224.361 386.989 215.967C367.465 204.638 344.546 186.081 327.565 167.877C318.605 158.246 316.928 157.957 306.292 163.784C298.183 168.256 292.841 170.509 286.864 171.846L281.653 172.978L284.73 173.977C295.439 177.44 314.57 192.195 330.364 209.261C339.618 219.224 342.63 223.419 342.466 226.169C342.294 229.045 340.766 231.526 338.154 233.252C328.815 239.407 312.11 241.797 289.562 240.137C282.502 239.653 274.493 239.3 271.728 239.386C262.736 239.727 254.682 235.921 240.424 224.656C236.231 221.332 232.255 218.585 231.567 218.544C229.567 218.424 224.48 215.36 221.449 212.545C217.231 208.591 212.508 201.534 209.418 194.449C207.098 189.166 206.404 188.183 205.154 188.109C204.341 188.06 198.023 188.812 191.189 189.784C184.294 190.753 178.538 191.538 178.35 191.527C178.163 191.516 180.471 192.783 183.518 194.282C196.99 200.858 204.948 208.36 209.282 218.782C212.31 225.863 213.049 230.299 212.582 238.113C212.216 244.239 210.296 253.283 209.134 253.841C208.872 254.014 206.81 252.824 204.517 251.307C195.825 245.581 173.537 233.272 168.379 231.396C167.519 231.093 169.121 232.632 171.939 234.808C177.992 239.56 188.587 251.234 191.598 256.496C195.57 263.508 196.589 267.459 196.252 274.151C195.857 280.777 194.677 283.718 190.47 287.984L188.266 290.236L185.921 288.528C184.598 287.571 177.604 282.824 170.305 277.934C149.125 263.872 139.909 256.421 132.003 246.978C129.715 244.332 127.103 240.788 126.2 239.103C125.297 237.418 123.772 235.633 122.857 235.202C120.541 234.06 116.806 229.383 115.044 225.263C112.064 218.435 110.141 209.663 109.118 198.435C108.597 192.444 108.109 191.16 106.3 190.989C104.925 190.907 79.1925 180.588 69.1095 176.096C51.6967 168.281 33.6346 158.733 20.4624 150.293C12.5496 145.178 0.914963 136.203 0.97095 135.265C1.11279 132.89 7.70836 118.039 11.4796 111.614C31.9418 76.7636 65.4455 56.7442 109.717 52.8632C113.501 52.5245 116.657 52.2111 116.66 52.1486C116.727 52.0898 117.651 50.263 118.723 48.0685C121.147 43.1945 127.102 33.8261 131.034 28.9167C143.179 13.5818 159.489 4.14168 178.01 1.79715C179.976 1.51591 182.126 1.27697 183.577 1.1158ZM68 102.5C68 96.2853 62.7132 91.3619 56.5 91.5C50.4264 91.635 45.5 96.4249 45.5 102.5C45.5 108.575 50.4264 113.365 56.5 113.5C62.7132 113.638 68 108.715 68 102.5Z" fill="#000080"/>
</svg>
