<svg width="468" height="347" viewBox="0 0 468 347" fill="none" xmlns="http://www.w3.org/2000/svg">
<path fill-rule="evenodd" clip-rule="evenodd" d="M280.71 25.3492C259.87 14.7174 231.33 7.15991 191.827 1.80253C186.659 1.13258 182.277 0.508535 182.018 0.440799C181.808 0.428556 181.642 0.576637 181.626 0.838733C181.587 1.52019 194.052 6.92925 202.4 9.88881C206.366 11.3301 215.861 14.4619 223.552 16.9623C245.91 24.1062 253.296 27.3251 256.8 31.2642C259.219 33.9827 259.081 35.4474 255.852 41.2024C249.576 52.3022 243.968 69.069 234.81 103.407C231.026 117.755 229.608 124.931 229.192 132.06C228.567 142.753 230.975 149.258 236.724 152.592C238.809 153.818 244.159 154.972 246.641 154.802C248.596 154.653 248.596 154.653 244.838 156.853C231.281 164.74 222.423 166.905 206.954 166.107C180.682 164.731 158.943 160.516 135.175 152.29C111.411 144.012 90.7451 134.022 55.3699 113.81C31.3443 100.099 24.513 96.3866 18.1508 93.6482C11.841 90.9129 7.69031 89.9341 4.97409 90.5119C2.79125 90.963 0.575108 92.8849 0.483281 94.4575C0.455733 94.9293 2.59458 99.7354 5.17768 105.041C12.2757 119.499 18.9084 134.719 20.1623 139.368C20.9838 142.414 21.2283 144.532 21.0477 147.625C20.8906 150.315 20.8343 151.28 20.3403 151.889C20.0643 152.23 19.6518 152.46 19.0087 152.818C16.5118 154.145 15.5659 155.931 15.3979 159.708C14.8971 170.987 31.2691 190.563 54.1391 206.047C57.7817 208.522 61.0726 210.712 61.4273 210.944C61.8283 211.283 60.9869 212.18 58.6812 213.834C52.2544 218.508 47.5149 224.911 47.1992 229.416C46.9662 232.506 47.7314 233.813 50.3095 234.7C51.4968 235.085 64.6096 240.216 79.4679 246.08C94.3262 251.945 107.902 257.261 109.709 257.84L112.956 258.976L109.458 262.138C103.682 267.376 97.9264 270.459 82.4165 276.654C76.0072 279.225 73.9265 280.629 74.4204 282.078C74.8157 283.416 81.7178 286.817 87.6079 288.634C98.4597 291.95 112.12 294.01 128.012 294.78C137.873 295.251 138.552 295.343 137.716 296.136C135.762 298.073 138.055 301.152 142.594 302.68C148.321 304.592 158.718 305.778 165.952 305.306C202.579 303.184 231.887 283.173 245.927 250.804C251.025 239.161 254.934 222.664 255.678 209.926L256.02 204.055L262.77 211.865C270.112 220.342 276.331 226.438 283.419 232.059L287.892 235.634L285.351 235.906C280.165 236.445 276.083 237.89 273.645 240.009C270.48 242.875 269.704 245.354 269.824 252.304C269.916 258.832 269.747 259.926 268.247 263.994C265.509 271.25 258.119 278.919 241.819 291.432C228.108 301.94 224.715 306.002 226.888 309.338C227.465 310.265 228.041 310.299 234.991 310.179C245.999 309.928 247.738 309.871 256.833 309.035C266.829 308.093 274.377 306.746 282.612 304.439C288.494 302.784 297.379 299.252 300.813 297.191C301.688 296.611 302.607 296.191 302.764 296.201C303.655 296.253 299.698 307.277 294.843 318.355C292.958 322.716 290.278 328.976 288.985 332.214C286.228 338.891 285.176 344.3 286.237 345.94C286.919 346.874 287.35 346.689 293.783 341.91C306.979 332.108 320.186 319.414 327.499 309.479C333.557 301.207 338.446 291.341 340.561 283.049C342.466 275.639 342.595 266.231 340.976 257.932L340.741 256.55L345.098 256.7C359.695 257.131 375.761 253.125 390.363 245.352C403.61 238.288 434.23 215.618 449.74 201.323C460.355 191.581 465.356 185.193 466.855 179.337C467.53 176.799 467.508 176.272 466.634 174.117C465.758 172.015 464.41 170.779 455.456 163.786C454.429 162.982 453.308 162.104 452.135 161.184C446.926 157.102 440.663 152.195 436.847 149.182C413.313 130.661 397.577 120.906 380.147 114.05C370.479 110.277 358.597 107.479 349.896 106.971L345.598 106.72L344.456 104.654C343.908 103.766 341.168 98.6364 337.866 92.4536C337.111 91.0418 336.328 89.575 335.535 88.0912C331.27 80.0577 326.277 70.9824 324.463 67.8258C312.734 47.9953 299.047 34.6779 280.71 25.3492ZM412.5 165.5C412.512 160.666 416.674 156.716 421.5 157C426.051 157.268 429.488 160.942 429.5 165.5C429.512 169.927 426.396 173.479 422 174C417.056 174.586 412.488 170.478 412.5 165.5Z" fill="#000080"/>
</svg>
