<svg width="432" height="294" viewBox="0 0 432 294" fill="none" xmlns="http://www.w3.org/2000/svg">
<path fill-rule="evenodd" clip-rule="evenodd" d="M401.98 108.639C372.786 55.5196 322.872 22.1104 250.868 7.58027C241.348 5.67321 216.211 2.34862 205.045 1.55751C162.366 -1.61115 118.109 0.388609 63.4243 7.94285C56.8407 8.86053 51.8861 9.79465 52.2839 9.99248C52.7512 10.2001 57.122 10.3896 62.1385 10.5281C63.6704 10.5464 65.2223 10.5675 66.6753 10.5872C69.9236 10.6313 72.6779 10.6688 73.6112 10.6531C74.9523 10.6999 78.7667 10.8111 82.0944 10.8538C91.084 10.984 105.567 11.3907 113.544 11.6621C115.106 11.7108 116.758 11.7721 118.277 11.8285C120.534 11.9122 122.495 11.9851 123.428 11.9891C142.917 12.6039 168.939 16.1947 173.186 18.7784C179.72 22.7478 177.808 25.2449 160.594 34.6676C143.371 44.1598 135.897 51.4066 131.828 62.6791C127.324 75.0252 130.192 92.4515 140.197 113.081C142.512 117.804 144.099 121.645 143.751 121.596C142.291 121.391 133.775 114.873 123.625 106.351C90.7385 78.4591 79.01 70.0705 65.2816 64.805C60.7685 63.106 50.1859 61.1912 50.0587 62.0954C50.0098 62.4431 50.5276 67.8356 51.266 74.1812C53.3941 94.3406 53.3909 116.541 51.1935 139.212C48.8113 163.702 44.1461 184.253 39.3735 191.454C38.205 193.205 37.3736 194.577 37.5127 194.597C38.2082 194.695 53.4948 189.895 58.9636 187.828C71.9854 182.993 82.4241 177.865 105.025 165.442C114.629 160.197 122.857 157.17 126.722 157.43C130.795 157.719 133.329 158.36 134.454 159.44C135.38 160.422 134.944 160.999 130.532 165.13C125.14 170.187 119.453 177.331 116.177 182.97C109.012 195.58 106.384 211.736 108.844 229.034C109.721 235.399 108.436 238.481 103.438 242.246C96.0594 247.804 85.1895 250.956 50.5868 257.435C36.5273 260.067 21.7831 263.028 17.7425 264.02C10.4752 265.763 -1.3468 269.632 1.38422 269.378C30.392 266.367 72.6928 264.66 93.067 265.541C97.5075 265.74 102.305 265.919 103.646 265.966C104.988 266.013 114.426 266.986 124.61 268.206C156.085 271.855 165.947 271.328 217.571 262.847C255.978 256.548 272.394 254.815 283.818 255.785L289.769 256.339L280.836 259.337C244.437 271.522 163.255 285.419 106.417 289.124L91.3802 290.128L103.948 291.542C156.168 297.472 241.403 288.046 307.278 269.016C347.79 257.339 382.333 241.702 406.97 223.891C414.547 218.432 425.027 209.48 429.636 204.454L431.895 202.006L429.487 190.389C421.67 152.69 414.454 131.389 401.98 108.639ZM393.5 153.5C394.206 146.887 389.116 141.177 382.5 140.5C375.219 139.755 368.229 146.222 369 153.5C369.703 160.142 375.855 164.674 382.5 164C388.408 163.401 392.869 159.405 393.5 153.5Z" fill="#000080"/>
</svg>
