<svg width="738" height="700" viewBox="0 0 738 700" fill="none" xmlns="http://www.w3.org/2000/svg">
<path d="M11.4932 203.329C46.4621 198.322 75.3524 200.067 189.958 214.382C237.906 220.352 271.759 223.854 292.082 225.022C326.106 226.911 332.833 227.404 345.73 229.201C361.854 231.339 379.601 235.279 393.413 239.747C398.913 241.56 413.498 247.632 425.771 253.279L448.139 263.58L456.244 263.385C481.238 262.544 504.344 267.921 527.796 279.968C532.06 282.159 543.502 288.805 553.002 294.63C581.943 312.368 590.868 316.429 605.907 318.887C618.738 320.967 630.561 319.895 644.885 315.39C656.766 311.715 658.794 311.385 663.266 312.292C675.399 314.806 676.895 328.45 666.051 336.731C664.116 338.23 658.388 341.323 653.32 343.652C632.701 353.184 626.149 363.042 617.788 397.251C610.626 426.621 603.562 444.763 594.292 457.705C589.78 464.044 580.322 474.646 577.387 476.692C576.415 477.315 575.499 478.777 575.31 479.881C572.768 492.627 561.549 520.589 552.542 536.532C544.971 549.871 533.841 564.973 527.046 570.962C525.139 572.537 525.196 572.688 527.048 564.763C528.503 558.536 532.18 539.167 532.663 534.94C532.994 532.836 532.824 532.383 532.295 533.27C530.039 537.128 510.776 553.728 510.239 552.294C510.125 551.992 510.635 550.595 511.296 549.142C513.081 545.633 519.418 528.539 523.366 516.557L526.7 506.613L516.169 510.214C506.496 513.579 505.345 514.183 500.437 518.087C492.236 524.689 485.129 531.225 461.533 553.494C434.266 579.29 428.659 584.318 419.24 591.806C410.293 598.946 405.103 601.406 402.726 599.886C400.188 598.168 399.435 595.007 398.599 581.977C397.013 556.142 395.554 548.339 389.35 533.618C384.033 520.803 378.526 512.536 370.206 504.805C362.576 497.764 354.785 487.769 349.571 478.445C342.715 466.121 343.696 467.131 339.997 469.205C327.719 475.957 316.987 488.672 302.665 513.406C294.197 528.028 291.894 530.613 288.715 528.791C286.422 527.497 284.509 520.552 282.429 506.266C278.372 477.742 275.639 469.985 266.518 459.886C264.179 457.319 255.266 448.692 246.758 440.688C238.014 432.514 231.204 425.596 231.176 424.832C231.205 422.841 235.234 422.795 258.85 424.709C295.156 427.637 309.733 427.255 323.256 423.136L330.569 420.827L330.429 416.317C330.009 401.409 334.793 373.275 340.838 355.17C343.926 346.179 351.896 328.387 355.436 322.67C358.041 318.595 358.392 314.935 357.141 303.093C356.407 295.62 350.949 281.05 346.753 275.132C331.692 254.002 303.664 241 255.839 232.831C245.187 231.054 238.29 230.108 187.209 223.59C174.444 221.916 158.027 219.457 150.706 218.067C103.618 209.107 83.4738 207.269 29.2868 207.166L-0.000330389 207.118L4.93493 205.356C7.65265 204.338 10.5779 203.414 11.4932 203.329Z" fill="#58A4FB"/>
<circle r="13.5869" transform="matrix(-0.936448 0.350806 0.350806 0.936448 526.805 317.682)" fill="#000080"/>
</svg>
